<svg xmlns="http://www.w3.org/2000/svg" width="24" height="24" viewBox="0 0 24 24" fill="none">
  <path fill-rule="evenodd" clip-rule="evenodd" d="M0 12C0 5.37258 5.37258 0 12 0C18.6242 0.00771476 23.9923 5.37578 24 12C24 18.6274 18.6274 24 12 24C5.37258 24 0 18.6274 0 12ZM12.0797 17.4888L18.9247 8.19975C19.1561 7.91334 19.2114 7.52293 19.0686 7.18353C18.9258 6.84412 18.608 6.61065 18.2415 6.57579C17.8749 6.54094 17.5189 6.71034 17.3147 7.01676L11.0877 15.4678L7.01166 12.2068C6.58033 11.8616 5.95084 11.9314 5.60566 12.3628C5.26049 12.7941 5.33033 13.4236 5.76166 13.7688L10.6497 17.6768C10.8633 17.8438 11.1352 17.918 11.4041 17.8826C11.673 17.8473 11.9164 17.7053 12.0797 17.4888Z" fill="#030B59"/>
</svg>