<svg xmlns="http://www.w3.org/2000/svg" width="21" height="21" viewBox="0 0 21 21" fill="none">
  <path fill-rule="evenodd" clip-rule="evenodd" d="M0.486328 10.8312C0.486328 5.30833 4.96348 0.831177 10.4863 0.831177C16.0065 0.837606 20.4799 5.31099 20.4863 10.8312C20.4863 16.354 16.0092 20.8312 10.4863 20.8312C4.96348 20.8312 0.486328 16.354 0.486328 10.8312ZM10.5547 15.4053L16.2588 7.66451C16.4517 7.42583 16.4977 7.10049 16.3788 6.81765C16.2598 6.53482 15.995 6.34025 15.6895 6.31121C15.384 6.28216 15.0873 6.42333 14.9172 6.67868L9.728 13.7212L6.33133 11.0037C5.97188 10.716 5.44731 10.7742 5.15966 11.1337C4.87201 11.4931 4.93022 12.0177 5.28966 12.3053L9.363 15.562C9.54106 15.7012 9.76759 15.763 9.99168 15.7336C10.2158 15.7041 10.4186 15.5858 10.5547 15.4053Z" fill="#CFD9E1"/>
</svg>