<svg width="42" height="24" viewBox="0 0 42 24" fill="none" xmlns="http://www.w3.org/2000/svg">
<path d="M25.6433 5.04492H17.2793V20.0704H25.6433V5.04492Z" fill="#FF5F00"/>
<path d="M17.8125 12.5578C17.8125 9.50379 19.2465 6.79629 21.45 5.04279C20.0406 3.93644 18.3484 3.24881 16.5668 3.05846C14.7851 2.8681 12.9859 3.1827 11.3745 3.96631C9.76321 4.74992 8.40476 5.97095 7.45438 7.48991C6.50401 9.00887 6.00002 10.7645 6 12.5563C5.99974 14.3482 6.50352 16.104 7.45379 17.6232C8.40405 19.1424 9.76248 20.3637 11.3739 21.1474C12.9853 21.9312 14.7846 22.246 16.5664 22.0557C18.3482 21.8654 20.0405 21.1777 21.45 20.0713C20.3138 19.1762 19.396 18.0346 18.7658 16.7327C18.1356 15.4308 17.8097 14.0027 17.8125 12.5563V12.5578Z" fill="#EB001B"/>
<path d="M36.9261 12.558C36.926 14.3499 36.4219 16.1057 35.4713 17.6247C34.5208 19.1437 33.1621 20.3647 31.5506 21.1482C29.939 21.9316 28.1396 22.246 26.3578 22.0554C24.5761 21.8647 22.8839 21.1767 21.4746 20.07C22.6126 19.1773 23.5319 18.0366 24.1623 16.7347C24.7926 15.4329 25.1175 14.0044 25.1121 12.558C25.1121 9.504 23.6781 6.7965 21.4746 5.043C23.1536 3.71775 25.2306 2.99791 27.3696 3C32.6511 3 36.9261 7.3005 36.9261 12.558Z" fill="#F79E1B"/>
</svg>
