<svg width="57" height="60" viewBox="0 0 57 60" fill="none" xmlns="http://www.w3.org/2000/svg">
<g id="Group 35849">
<path id="Vector" d="M13.1508 35.1732L13.1888 35.1949C12.9438 36.8987 12.7966 38.6081 12.7772 40.315C12.6955 40.3692 12.5921 40.4613 12.4612 40.6894C11.3669 41.6277 10.3648 42.6696 9.52277 43.8286C8.54183 45.186 7.80517 46.7339 7.27227 48.323C7.02358 49.0643 6.97056 49.8174 7.02349 50.6054C7.09693 52.0626 7.41777 53.4847 7.80653 54.9204C8.21151 56.416 8.72804 57.8493 9.27445 59.2745C9.33116 59.484 9.52122 59.5931 9.7468 59.5962C11.5702 59.8087 13.4154 59.9832 15.2693 59.8345C15.8021 59.7864 16.3866 59.6925 16.8547 59.4053C16.9581 59.3129 17.1214 59.2048 17.1108 59.047C16.9632 58.0275 16.5382 57.051 16.3308 56.0475C16.2068 55.4711 16.238 54.7565 16.7035 54.3415C17.3162 53.758 18.1213 53.4119 18.9127 53.1333C20.6234 52.5736 22.4692 52.3951 24.2739 52.4199C26.2225 52.5023 28.1767 52.4868 30.1031 52.9606C31.9913 53.4125 33.7753 54.3099 35.2789 55.4761C36.6524 56.5167 37.8269 57.7718 38.9199 59.0814C39.2782 59.3374 39.7616 59.4632 40.1855 59.6055C42.2337 60.1744 44.3893 60.0725 46.4259 59.6495C46.8149 59.5441 46.7151 59.0576 46.5741 58.7746C45.8216 57.1805 44.9056 55.6949 44.0493 54.1928C42.9765 52.3644 41.9334 50.528 40.8903 48.6912C42.6694 49.3333 44.5712 49.7173 46.4681 49.8459C48.5363 49.8958 50.603 49.4647 52.4178 48.4597C53.7562 47.7119 54.9218 46.5616 55.457 45.1001C55.9649 43.7747 55.8914 42.3179 55.4972 40.9797C55.3838 40.5611 55.2487 40.1802 55.0755 39.7776C55.1811 39.8133 55.3011 39.7807 55.3525 39.7349C56.4799 38.5625 56.9026 36.3291 56.0845 34.849C56.0303 34.7675 55.8865 34.7102 55.7504 34.6826C55.5821 34.5357 55.1722 34.3256 54.9766 34.3145C48.8896 33.651 43.1196 31.9066 37.7761 28.8906C37.6621 28.8253 37.4203 28.7624 37.2248 28.7509L37.1324 28.6474L33.2838 28.6623L16.3115 23.3693C13.9579 21.7913 11.6486 19.7839 10.0191 17.5604C7.98029 14.7735 6.49176 11.2917 5.73419 7.90103C5.69369 7.75147 5.29987 7.60127 5.01445 7.61431L4.72157 7.24414L2.06563 7.51381L0.824216 8.62049L0.258995 8.54881C0.258995 8.54881 0.320015 9.36703 0.378554 10.0575C0.288808 10.0818 0.237086 10.1279 0.223389 10.1958C0.651542 19.84 6.60165 28.5349 13.1508 35.1732ZM51.3108 39.866C51.3108 39.866 49.3476 43.2872 45.5257 43.5193C41.674 43.7595 37.2989 41.8301 37.2989 41.8301L36.7587 38.4125L36.8709 37.997C36.8709 37.997 42.6058 39.4941 46.8046 39.7057C51.0034 39.9171 51.3108 39.866 51.3108 39.866Z" fill="white"/>
<path id="Vector_2" d="M41.0692 17.6938C41.0382 15.3264 40.9771 12.967 40.6908 10.6046C40.5002 9.30778 40.3394 8.00287 39.7599 6.81134C39.7648 7.06682 39.7617 7.29243 39.7369 7.55603C39.5817 9.23545 39.3502 10.8712 39.0973 12.5451C39.0778 12.7108 39.0365 12.9146 38.8571 12.9632C38.634 13.0878 38.352 12.8753 38.3768 12.6117C38.6603 10.5764 39.0121 8.55492 39.092 6.47852C38.5996 6.67604 38.1317 6.96329 37.6718 7.28047C36.3953 8.13972 35.2493 9.12426 34.0732 10.1169C37.0328 11.9162 39.7351 14.4271 41.0692 17.6938Z" fill="white"/>
<path id="Vector_3" d="M27.2939 7.49004C26.6378 6.6082 25.93 5.7725 25.2302 4.96671C23.9472 3.54828 22.6262 2.10806 20.9972 1.07227C22.0167 2.46575 22.9326 3.95142 23.8405 5.4072C24.0112 5.68201 24.2119 5.94874 24.3309 6.2697C24.382 6.5769 23.9277 6.79625 23.7351 6.55942C22.5643 4.72536 21.4751 2.8371 20.141 1.11147C19.9634 1.64117 19.7858 2.17085 19.6543 2.75225C19.1749 4.77628 18.9292 6.83334 18.6537 8.89849C19.3286 8.4268 20.0796 7.99874 20.8791 7.75014C22.9325 7.0336 25.1503 7.04308 27.2939 7.49004Z" fill="white"/>
<path id="Vector_4" d="M37.051 28.7026L34.1413 29.4584L31.1387 30.4641C31.1387 30.4641 26.3087 30.6481 26.2027 30.6128C26.0967 30.5772 22.3541 29.0863 22.1777 28.9093C22.0014 28.7324 18.1199 25.8987 18.1255 25.8007C18.1012 25.7109 16.2586 22.582 16.2586 22.582C16.4786 22.683 16.7995 22.5639 16.8245 22.3003C16.7896 22.0529 16.5834 21.884 16.4587 21.6609C15.4749 20.1615 14.8013 18.3855 14.7665 16.597C14.7311 15.1618 15.1686 13.6949 15.9645 12.4842C16.5777 11.5476 17.3892 10.7499 18.2548 10.034C18.3302 10.4309 18.7676 10.5051 19.0636 10.6497C18.2983 11.4991 17.6495 12.5416 17.5822 13.7156C17.5397 14.6261 17.9703 15.5048 18.6433 16.0931C19.3082 16.6515 20.1145 17.1395 21.025 17.1819C21.9653 17.2162 22.8876 16.7096 23.4217 15.955C23.5164 16.1862 23.4915 16.4498 23.6161 16.6729C23.7108 16.9041 23.8953 17.111 24.0716 17.288C23.7743 17.8501 23.3574 18.4446 22.7454 18.6745C21.9621 18.9829 21.0791 18.8046 20.3731 18.45C20.0471 18.3135 19.7555 18.7777 20.0159 19.0283C21.1345 19.7207 22.7597 19.7943 23.7942 18.8721C23.7711 19.6168 24.0932 20.3322 24.5843 20.8413C25.5744 21.8896 26.9567 22.6069 28.3943 22.6992C29.6444 22.8102 30.9224 22.432 31.9618 21.7653C32.2965 21.5784 32.0068 20.9826 31.6343 21.1477C30.9649 21.5216 30.2794 21.8356 29.4991 21.9185C27.7156 22.2088 25.828 21.4035 24.7626 19.9583C24.2448 19.2317 24.4666 18.2726 24.7371 17.4931C25.4818 17.5162 26.0806 17.0008 26.4677 16.4145C25.5523 16.1166 24.6668 15.8105 23.7732 15.4746C24.0431 15.0483 24.2968 14.5623 24.4607 14.1005C24.518 13.9566 24.4694 13.7771 24.3772 13.6737C23.3546 12.5058 22.0735 11.5684 20.7349 10.7751C20.0806 10.3743 19.4045 10.0116 18.6848 9.72493C19.3516 9.2233 20.0944 8.76533 20.8859 8.48683C22.7598 7.81888 24.782 7.81714 26.6976 8.13321C28.7789 8.46858 30.778 9.21152 32.6461 10.1825C34.2644 11.0607 35.7956 12.0909 37.1359 13.3653C38.2159 14.3892 39.1406 15.5515 39.8503 16.8683C40.6303 18.3265 41.084 20.0017 40.9585 21.673C40.8664 23.1106 40.1546 24.395 39.4186 25.5894C38.7399 26.6402 37.9035 27.7013 37.051 28.7026ZM21.3824 20.8736C21.5413 21.6974 22.1351 22.4677 22.9309 22.798C23.1508 22.899 23.4475 22.6902 23.4045 22.4129C23.3777 22.1954 23.1958 22.1162 23.0437 22.029C22.5496 21.7454 22.2243 21.2556 22.0785 20.7172C22.038 20.5676 21.9078 20.4424 21.7501 20.4529C21.5326 20.4797 21.3257 20.6642 21.3824 20.8736ZM32.0083 29.1693C28.2332 29.0999 24.3913 28.31 21.1497 26.2981C20.1071 25.6495 19.1381 24.9166 18.3163 24.0154C18.1617 23.8004 17.7647 23.8757 17.7099 24.1475C17.6389 24.3594 17.8152 24.5364 17.9535 24.6916C19.0359 25.8432 20.3389 26.7425 21.721 27.4599C24.8275 29.0909 28.3677 29.8337 31.8791 29.8784C32.0068 29.8759 32.1565 29.8353 32.26 29.7432C32.3907 29.5152 32.2637 29.1644 32.0083 29.1693ZM37.3525 16.7741C36.1662 16.0679 34.7971 15.636 33.4385 15.3617C31.4985 14.9559 29.504 14.8218 27.5198 14.8454C27.362 14.856 27.1665 14.8448 27.0329 14.9451C26.7881 15.1077 26.9396 15.5483 27.2331 15.5651C27.4287 15.5764 27.6161 15.5577 27.812 15.5689C27.5033 16.3267 27.3388 17.1418 27.4079 17.9899C27.491 18.7701 27.8808 19.4992 28.5434 19.9299C29.2437 20.3823 30.0668 20.5768 30.9094 20.6055C31.8497 20.6399 32.7883 20.1931 33.3523 19.4304C34.0118 18.5455 34.2448 17.3908 34.2768 16.3227C35.244 16.5745 36.1755 16.9323 37.0497 17.434C37.3974 17.5325 37.6729 17.0084 37.3525 16.7741Z" fill="white"/>
<path id="Vector_5" d="M28.5184 15.5693C30.1952 15.5969 31.8829 15.782 33.5431 16.103C33.5328 17.1331 33.3354 18.1819 32.698 19.0288C32.2728 19.5933 31.5492 19.8856 30.8346 19.8544C30.0518 19.8094 29.1986 19.6231 28.5937 19.0485C28.1106 18.5692 28.0142 17.8569 28.0616 17.202C28.1332 16.6368 28.3408 16.099 28.5184 15.5693ZM29.9086 17.8577C29.9814 18.1269 30.212 18.3855 30.4893 18.3425C30.9244 18.289 31.2402 17.9144 31.3986 17.5505C31.6087 17.1405 31.6964 16.6351 31.4853 16.2107C31.3986 16.0094 31.2086 15.9004 30.983 15.8972C30.6976 15.9103 30.4608 16.1029 30.2919 16.3091C29.9622 16.7516 29.7629 17.3193 29.9086 17.8577Z" fill="white"/>
<path id="Vector_6" d="M19.7316 10.9824C21.206 11.8032 22.623 12.768 23.7596 14.0013C23.3857 14.8731 22.8921 15.7773 22.0215 16.2377C21.3821 16.6035 20.567 16.4389 19.9588 16.0899C19.3126 15.7191 18.7019 15.2424 18.4477 14.5407C18.1798 13.9069 18.3388 13.1896 18.598 12.6057C18.8573 12.0218 19.2524 11.4654 19.7316 10.9824ZM20.6712 14.4523C20.7603 14.7813 21.1921 14.9533 21.4969 14.7745C22.226 14.3844 22.6193 13.3469 22.1912 12.596C21.9849 12.4271 21.7052 12.3423 21.4602 12.5049C20.7909 12.8788 20.417 13.7506 20.6712 14.4523Z" fill="white"/>
<path id="Vector_7" d="M14.6361 19.5538L14.4118 18.844C13.9825 17.2587 13.9421 15.568 14.475 13.979C15.0709 12.1481 16.3566 10.6121 17.8672 9.43253C17.9726 8.2803 18.1459 7.14177 18.2893 6.01136C18.5174 4.60114 18.7375 3.16102 19.1314 1.77014C19.2873 1.27846 19.4269 0.726967 19.7646 0.314432C19.9335 0.108196 20.2084 -0.0625576 20.4882 0.0222302C21.0477 0.191744 21.588 0.527052 22.0604 0.848632C23.4556 1.8514 24.6383 3.13645 25.7911 4.42958C26.7134 5.46408 27.5538 6.55281 28.4027 7.67145C30.1712 8.15575 31.8685 8.85194 33.4788 9.70015C34.7419 8.55549 36.0813 7.45442 37.5207 6.48674C38.1003 6.13718 38.7235 5.7116 39.4058 5.62312C39.9987 5.55897 40.2965 6.18465 40.5457 6.63087C41.1357 7.98007 41.3151 9.47257 41.5163 10.927C41.885 14.423 41.8785 17.9564 41.7744 21.4841C41.7199 22.9436 41.0626 24.3094 40.3046 25.5422C39.5905 26.6987 38.7919 27.7818 37.9097 28.7912L37.1544 28.6105C38.007 27.6089 38.8214 26.5859 39.5438 25.4592C40.2798 24.2646 40.9916 22.9803 41.0839 21.5427C41.2091 19.8713 40.7558 18.1963 39.9754 16.738C39.2658 15.4212 38.3113 14.267 37.2611 13.235C35.9208 11.9605 34.4116 10.8924 32.7716 10.0522C30.9032 9.0812 28.9041 8.33828 26.8228 8.00288C24.9072 7.68682 22.8551 7.69667 21.0111 8.3565C20.2197 8.63501 19.4768 9.093 18.81 9.5946C19.5298 9.88132 20.176 10.2521 20.8602 10.6448C22.1987 11.4381 23.45 12.3836 24.5024 13.5433C24.6246 13.6387 24.6732 13.8182 24.5859 13.9702C24.4301 14.4619 24.1683 14.918 23.8985 15.3442C24.7921 15.6802 25.7075 15.9781 26.5929 16.2842C26.2061 16.8705 25.599 17.3559 24.8624 17.3628C24.6218 18.1342 24.37 19.1014 24.8878 19.828C25.9532 21.2732 27.8408 22.0785 29.6243 21.7881C30.3665 21.6835 31.082 21.3614 31.7595 21.0174C32.1022 20.8604 32.4217 21.4481 32.087 21.635C31.0095 22.2799 29.7616 22.65 28.5195 22.5689C27.0738 22.4467 25.6997 21.7593 24.7095 20.711C24.2104 20.172 23.8963 19.4865 23.9195 18.7418C22.8849 19.664 21.2597 19.5904 20.1412 18.898C19.8807 18.6474 20.1724 18.1832 20.4983 18.3197C21.2342 18.6662 22.0873 18.8526 22.8707 18.5442C23.5125 18.3061 23.8996 17.7198 24.1969 17.1577C24.0205 16.9807 23.8062 16.7819 23.7414 16.5426C23.6467 16.3114 23.6417 16.0559 23.547 15.8247C23.0129 16.5793 22.0987 17.1158 21.1502 17.0516C20.2398 17.0091 19.4334 16.5212 18.7685 15.9628C18.0955 15.3745 17.6351 14.5039 17.7074 13.5853C17.7748 12.4113 18.4236 11.3687 19.1889 10.5194C18.8848 10.3449 18.4554 10.3006 18.38 9.90366C17.5144 10.6196 16.703 11.4173 16.0897 12.3538C15.2939 13.5646 14.8482 15.0016 14.8918 16.4667C14.9347 18.2851 15.5702 20.0393 16.584 21.5306C16.7086 21.7537 16.9149 21.9226 16.9497 22.17C16.9248 22.4336 16.6039 22.5526 16.3839 22.4517L15.9122 21.7767C15.7334 21.472 15.5545 21.1673 15.3757 20.8625L15.0698 20.2069C14.8417 20.0761 14.7389 19.8149 14.6361 19.5538ZM19.7316 10.9824C19.2823 11.4573 18.8572 12.0218 18.6061 12.6357C18.3468 13.2196 18.2178 13.9287 18.4558 14.5706C18.71 15.2723 19.3506 15.7409 19.9669 16.1199C20.5751 16.4689 21.382 16.6035 22.0295 16.2677C22.9001 15.8072 23.3937 14.903 23.7677 14.0312C22.5931 12.7761 21.1761 11.8114 19.7316 10.9824ZM34.0731 10.1171C37.0327 11.9164 39.735 14.4273 41.0691 17.694C41.0381 15.3266 40.977 12.9673 40.6907 10.6048C40.5001 9.30798 40.3393 8.00307 39.7598 6.81154C39.7647 7.06702 39.7616 7.29263 39.7368 7.55622C39.5816 9.23565 39.3501 10.8714 39.0972 12.5453C39.0777 12.711 39.0368 12.9148 38.857 12.9634C38.6339 13.088 38.3519 12.8755 38.3767 12.6119C38.6602 10.5766 39.012 8.55512 39.0919 6.47871C38.5995 6.67624 38.1316 6.96349 37.6717 7.28067C36.3952 8.13992 35.2195 9.13258 34.0731 10.1171ZM18.6156 8.8767C19.2906 8.405 20.0415 7.97694 20.841 7.72834C22.9025 7.04173 25.1503 7.0431 27.2641 7.49815C26.608 6.61634 25.8999 5.78061 25.2003 4.97482C23.9172 3.55642 22.5962 2.1162 20.9673 1.0804C21.9867 2.47386 22.9027 3.95953 23.8106 5.4153C23.9813 5.69015 24.182 5.95688 24.301 6.27781C24.352 6.58504 23.8977 6.80435 23.7052 6.56753C22.5344 4.7335 21.4452 2.84524 20.1111 1.11961C19.9334 1.64928 19.7558 2.17896 19.6243 2.76039C19.1668 4.74639 18.8912 6.81154 18.6156 8.8767Z" fill="black"/>
<path id="Vector_8" d="M37.0116 17.4125C36.1374 16.9108 35.2059 16.553 34.2387 16.3012C34.2148 17.3992 33.9737 18.524 33.3143 19.4089C32.7503 20.1716 31.8119 20.6184 30.8714 20.584C30.0588 20.5472 29.2057 20.3608 28.5053 19.9084C27.843 19.4777 27.4448 18.7187 27.3701 17.9684C27.279 17.1583 27.4656 16.3052 27.7739 15.5474C27.5784 15.5362 27.3909 15.5549 27.195 15.5436C26.9016 15.5268 26.7584 15.1161 26.9952 14.9236C27.1204 14.7933 27.3243 14.8345 27.4817 14.8239C29.466 14.8003 31.4608 14.9344 33.4007 15.3402C34.759 15.6145 36.0984 16.0545 37.3147 16.7526C37.673 17.0087 37.3975 17.5328 37.0116 17.4125ZM33.5433 16.1043C31.8751 15.7533 30.1874 15.5681 28.5186 15.5705C28.341 16.1002 28.1334 16.638 28.0999 17.225C28.0225 17.888 28.1489 18.5922 28.632 19.0715C29.2072 19.6542 30.06 19.8406 30.8729 19.8774C31.5875 19.9085 32.3192 19.6462 32.736 19.0518C33.3437 18.213 33.5334 17.1343 33.5433 16.1043Z" fill="black"/>
<path id="Vector_9" d="M30.4975 18.373C30.9326 18.3194 31.2484 17.9449 31.4068 17.581C31.6169 17.171 31.7049 16.6656 31.4935 16.2412C31.4071 16.0399 31.2168 15.9309 30.9912 15.9277C30.7058 15.9408 30.469 16.1334 30.3001 16.3396C29.9326 16.7602 29.7711 17.3497 29.879 17.8663C29.9518 18.1355 30.1824 18.3942 30.4975 18.373Z" fill="black"/>
<path id="Vector_10" d="M21.467 14.7826C22.1961 14.3925 22.5894 13.355 22.1613 12.604C21.9551 12.4351 21.6752 12.3503 21.4303 12.513C20.7909 12.8787 20.417 13.7505 20.6793 14.4822C20.7684 14.8112 21.1622 14.9614 21.467 14.7826Z" fill="black"/>
<path id="Vector_11" d="M22.9309 22.7978C23.1508 22.8988 23.4475 22.69 23.4045 22.4127C23.3777 22.1952 23.1958 22.1161 23.0437 22.0288C22.5495 21.7453 22.2243 21.2554 22.0785 20.717C22.038 20.5674 21.9078 20.4422 21.7501 20.4528C21.5326 20.4796 21.3556 20.6559 21.4123 20.8653C21.5494 21.7271 22.1351 22.4675 22.9309 22.7978Z" fill="black"/>
<path id="Vector_12" d="M32.0084 29.1692C28.2332 29.0998 24.3914 28.3099 21.1498 26.298C20.1072 25.6494 19.1383 24.9165 18.3164 24.0153C18.1618 23.8003 17.7649 23.8757 17.71 24.1474C17.6389 24.3593 17.8153 24.5362 17.9536 24.6915C19.036 25.8431 20.339 26.7424 21.7211 27.4598C24.8275 29.0908 28.3677 29.8336 31.8792 29.8782C32.0068 29.8758 32.1565 29.8352 32.26 29.7431C32.3908 29.515 32.2638 29.1642 32.0084 29.1692Z" fill="black"/>
<path id="Vector_13" d="M7.31027 48.3464C7.80515 46.7355 8.54992 45.2173 9.56077 43.8522C10.4028 42.6932 11.4049 41.6513 12.4992 40.713C12.8999 40.0585 13.1006 40.3253 13.2551 40.5404C13.2632 40.5701 13.3012 40.5921 13.3093 40.6219C13.3255 40.6817 13.3798 40.7635 13.366 40.8314C13.3741 40.8611 13.3523 40.8992 13.3305 40.9373C13.3087 40.9752 13.257 41.0213 13.2352 41.0594C13.2133 41.0973 13.1616 41.1434 13.1099 41.1896C13.0364 41.2736 12.9248 41.3362 12.8513 41.4202C12.334 41.8813 11.8548 42.3641 11.3755 42.8472C11.0514 43.1918 10.7573 43.5281 10.4712 43.8947C10.0381 44.4293 9.65108 45.0156 9.33198 45.6159C9.24474 45.7677 9.17929 45.8818 9.09205 46.0339C9.00479 46.1858 8.94746 46.3299 8.89009 46.4737C8.74553 46.7699 8.63084 47.0578 8.48624 47.3538C8.42891 47.4976 8.37154 47.6417 8.3223 47.8155C8.22946 48.0653 8.14467 48.3451 8.05182 48.5949C8.01067 48.7988 7.93152 48.9807 7.89037 49.1846C7.81057 49.7198 7.7987 50.269 7.82485 50.8398C7.84354 51.0273 7.87032 51.2448 7.889 51.4323C7.90769 51.6198 7.92638 51.8073 7.97497 51.987C8.04225 52.3539 8.10953 52.7212 8.1768 53.0881C8.2254 53.2675 8.24408 53.455 8.29268 53.6347C8.44096 54.3007 8.61915 54.9589 8.82725 55.6088C9.09202 56.4681 9.39485 57.3495 9.71947 58.1924C9.80609 58.3938 9.87089 58.6331 9.95747 58.8345C10.1232 58.8537 10.327 58.8949 10.4928 58.9142C11.7509 59.0552 13.0228 59.128 14.2785 59.1413C14.3764 59.1469 14.4661 59.1227 14.5639 59.1283C15.1647 59.0939 15.7953 59.0517 16.3854 58.8596C16.2858 58.3731 16.1263 57.9027 15.9587 57.4022C15.9263 57.2825 15.8939 57.1629 15.8615 57.0433C15.7967 56.8038 15.7319 56.5645 15.6671 56.3253C15.6347 56.2057 15.6023 56.086 15.5998 55.958C15.5568 55.681 15.5519 55.4253 15.5687 55.1319C15.5799 54.9363 15.6292 54.7625 15.7083 54.5802C15.7576 54.4064 15.8448 54.2545 15.962 54.0943C16.0056 54.0184 16.0791 53.9341 16.1309 53.8879C16.3297 53.6738 16.5148 53.5272 16.7516 53.3348C16.9666 53.1801 17.2196 53.0475 17.4427 52.9229C17.9188 52.6654 18.4491 52.4897 18.9496 52.3223C19.8687 52.0413 20.8421 51.842 21.8099 51.7404C22.3128 51.7004 22.7858 51.6688 23.2669 51.6669C23.5224 51.6619 23.748 51.665 24.0035 51.6601C24.259 51.6551 24.4846 51.6582 24.7482 51.6833C24.9738 51.6864 25.1694 51.6976 25.395 51.7007C26.463 51.7326 27.5693 51.7862 28.6316 51.9158C29.0612 51.9601 29.4984 52.0344 29.9143 52.1466C30.2158 52.1931 30.4957 52.278 30.7755 52.3629C31.2971 52.5104 31.7966 52.6964 32.2965 52.882C32.5466 52.975 32.8044 53.0977 33.0244 53.1987C33.2445 53.2994 33.4344 53.4085 33.6544 53.5096C34.0344 53.7277 34.4146 53.9459 34.8029 54.1938C34.925 54.2892 35.0391 54.3546 35.1612 54.4501C35.5194 54.7061 35.8776 54.9623 36.2142 55.2564C36.9552 55.8586 37.6524 56.5366 38.328 57.2525C38.7349 57.6882 39.1037 58.1019 39.4808 58.5457C39.7768 58.6904 40.0647 58.8051 40.3742 58.8816C40.5862 58.9529 40.7898 58.9938 40.9937 59.035C41.1976 59.0762 41.4012 59.1174 41.6349 59.1503C41.7328 59.1559 41.8388 59.1915 41.9364 59.1971C42.268 59.2358 42.5916 59.2445 42.9448 59.2451C43.2981 59.2457 43.6217 59.2544 43.9368 59.2333C44.4398 59.1937 44.9427 59.1537 45.4377 59.084C45.5951 59.0734 45.7745 59.0248 45.9323 59.0142C45.5722 58.277 45.182 57.5478 44.7621 56.8267C44.5672 56.4622 44.3422 56.1059 44.1472 55.7411C43.952 55.3767 43.727 55.02 43.5321 54.6556C43.2448 54.1876 42.9876 53.7113 42.7003 53.2433C42.1558 52.2994 41.611 51.3551 41.0666 50.4109C40.809 49.9349 40.5221 49.4669 40.2645 48.9906C40.0616 48.5964 39.8285 48.21 39.6333 47.8453C39.4384 47.4808 39.227 47.0563 39.0321 46.6918C38.6258 45.9028 38.2195 45.1138 37.8731 44.3087C37.8489 44.2192 37.7947 44.1373 37.7621 44.0177C37.5728 43.5554 37.3834 43.093 37.2458 42.5844C37.1891 42.375 37.1405 42.1955 37.1135 41.978C37.0221 41.5212 36.9604 41.0563 36.8687 40.5996C36.7773 40.1428 36.7748 40.0151 36.7131 39.5502C36.6515 39.0854 36.5898 38.6206 36.5579 38.1473C36.5312 37.9298 37.2012 37.2028 37.2945 38.1405C37.3239 38.4858 37.3611 38.861 37.4203 39.1982C37.5437 40.1279 37.6379 40.7124 37.821 41.6259C38.7228 41.9919 39.6299 42.26 40.5673 42.5197C42.3275 42.9743 44.1454 43.2845 45.9533 43.084C47.2664 42.9532 48.5094 42.3279 49.5004 41.4815C50.8751 40.2745 51.8593 38.6918 52.4875 36.9806C52.5885 36.7606 52.6189 36.3992 52.8882 36.3264C53.0977 36.2697 53.2359 36.4246 53.3444 36.5879C54.3394 37.8917 55.1278 39.3798 55.557 40.9652C55.9215 42.3114 55.9949 43.7683 55.5167 45.0856C54.9815 46.5471 53.816 47.6971 52.4776 48.4449C50.6628 49.4499 48.5964 49.8813 46.5279 49.8311C44.631 49.7028 42.7292 49.3188 40.95 48.6767C41.9931 50.5132 43.0363 52.3499 44.1091 54.1783C44.9734 55.7101 45.8895 57.1958 46.6342 58.7598C46.7749 59.0428 46.8746 59.5296 46.4857 59.635C44.4491 60.058 42.2556 60.1382 40.2453 59.591C39.8214 59.4487 39.346 59.3527 38.9797 59.0666C37.8867 57.7573 36.7122 56.5022 35.3387 55.4616C33.797 54.2738 32.043 53.3679 30.1628 52.9462C28.2666 52.4643 26.2823 52.4878 24.3337 52.4054C22.5209 52.3505 20.705 52.521 18.9726 53.1188C18.1811 53.3971 17.376 53.7435 16.7634 54.3267C16.3059 54.7718 16.2666 55.4566 16.3906 56.033C16.628 57.0281 17.023 58.013 17.1706 59.0325C17.1812 59.19 17.0479 59.2904 16.9145 59.3908C16.4465 59.678 15.8918 59.7639 15.3291 59.82C13.4752 59.9687 11.63 59.7943 9.80661 59.5817C9.58104 59.5786 9.39098 59.4695 9.33427 59.26C8.75792 57.8428 8.26323 56.3714 7.86635 54.9059C7.48567 53.4999 7.16484 52.0778 7.0833 50.5909C7.01668 49.8704 7.06158 49.0879 7.31027 48.3464ZM41.7149 48.1809C43.1218 48.6346 44.5783 48.9144 46.032 49.0666C46.9205 49.1468 47.8068 49.0997 48.6606 48.9327C48.9978 48.8735 49.3647 48.8062 49.6938 48.717C49.8732 48.6687 50.0229 48.6281 50.2023 48.5794C50.3817 48.5308 50.5531 48.4523 50.7326 48.4037C51.0834 48.2766 51.4261 48.1195 51.7608 47.9326C52.2669 47.6674 52.7348 47.3801 53.1786 47.003C53.3338 46.8647 53.4671 46.7643 53.5923 46.6342C53.7178 46.504 53.843 46.3736 53.9601 46.2137C54.1808 45.9611 54.3552 45.6571 54.5 45.3611C54.6227 45.103 54.7374 44.8151 54.822 44.5352C54.9698 44.0137 55.0497 43.4785 55.0314 42.9377C55.0209 42.78 55.0023 42.5922 54.9918 42.4348C54.9196 41.8122 54.7792 41.176 54.5492 40.5639C54.5331 40.5041 54.509 40.4142 54.4628 40.3625C54.3277 39.9819 54.1625 39.6091 53.9756 39.2744C53.6859 38.6788 53.3363 38.0993 52.9647 37.5576C52.8284 37.8836 52.6917 38.2093 52.5473 38.5056C52.4599 38.6574 52.4026 38.8015 52.3155 38.9534C51.9089 39.7055 51.4267 40.4142 50.8683 41.079C50.449 41.5457 49.9913 41.9907 49.488 42.3839C49.3845 42.476 49.2729 42.5383 49.1911 42.5925C48.9463 42.7552 48.7015 42.9179 48.4186 43.0586C48.2769 43.1292 48.1356 43.1996 47.994 43.2699C47.7929 43.3564 47.6215 43.4351 47.4201 43.5216C47.1291 43.6325 46.83 43.7137 46.4929 43.7726C46.433 43.789 46.403 43.7971 46.3432 43.8132C46.1259 43.8401 45.8783 43.8749 45.6608 43.9018C45.5034 43.9124 45.3456 43.9229 45.1879 43.9334C45.0004 43.952 44.8346 43.9328 44.6471 43.9514C43.9703 43.9421 43.3152 43.8947 42.6523 43.8175C42.3207 43.7788 41.9811 43.7103 41.6795 43.6635C41.5137 43.644 41.3399 43.5947 41.2042 43.5674C40.7285 43.4714 40.245 43.3456 39.7532 43.1897C39.2698 43.0639 38.808 42.8999 38.3162 42.744C38.1724 42.6867 37.9986 42.6374 37.8545 42.5801C38.0708 43.26 38.3469 43.9238 38.6528 44.5793C39.1399 45.6673 39.7089 46.7011 40.2859 47.765C40.7694 47.8908 41.2311 48.0547 41.7149 48.1809Z" fill="black"/>
<path id="Vector_14" d="M21.3239 30.6172C21.142 30.5378 20.998 30.4805 20.816 30.4015C20.8952 30.2196 20.9825 30.0674 21.0317 29.8936C21.2136 29.9729 21.3657 30.06 21.5396 30.1092C21.4903 30.2831 21.4112 30.465 21.3239 30.6172Z" fill="black"/>
<path id="Vector_15" d="M23.9293 31.2285C24.1113 31.3075 24.2633 31.3949 24.4372 31.4442C24.3499 31.5964 24.3007 31.7702 24.2134 31.9221C24.0315 31.843 23.8875 31.7857 23.7056 31.7064C23.8009 31.5843 23.8801 31.4024 23.9293 31.2285Z" fill="black"/>
<path id="Vector_16" d="M30.7281 32.1481C30.1654 32.2042 29.5945 32.2305 29.0156 32.2265C28.1132 32.2141 27.2328 32.1636 26.3716 31.9473C26.0918 31.8623 25.782 31.7858 25.5022 31.7012C25.3875 31.9891 25.2348 32.255 25.1201 32.5429C25.0055 32.8308 24.8528 33.097 24.7381 33.3849C23.9342 33.0245 23.1223 32.6343 22.3103 32.2441C22.6624 31.4105 23.0607 30.6283 23.4508 29.8164C23.5269 29.8601 23.5948 29.8737 23.6409 29.9255C24.3388 30.2503 25.0367 30.575 25.7428 30.9296C25.7808 30.9516 25.8268 31.003 25.8349 31.0331L25.873 31.0548C26.009 31.0823 26.1231 31.1477 26.2588 31.1753C26.5005 31.2382 26.7723 31.2931 27.0441 31.3479C27.1798 31.3752 27.3155 31.4028 27.4435 31.4003C27.9787 31.4799 28.4978 31.5001 29.0469 31.5119C29.2425 31.523 29.43 31.5044 29.6175 31.4858C29.963 31.4564 30.3082 31.4272 30.6234 31.4059C31.0284 31.3606 31.4334 31.3151 31.8007 31.2478C31.9203 31.2153 32.078 31.2047 32.1977 31.1725C32.4068 31.1158 32.5832 31.2928 32.6021 31.4802C32.6101 31.5103 32.6182 31.5401 32.6182 31.5401C32.6262 31.5701 32.6262 31.5701 32.6045 31.6079C32.6126 31.638 32.5906 31.6758 32.5689 31.7139C32.5252 31.7898 32.4815 31.8661 32.3538 31.8685C31.8453 32.0061 31.2909 32.0923 30.7281 32.1481ZM24.4758 32.6532C24.5686 32.4034 24.6995 32.1753 24.7924 31.9253C24.8934 31.7055 25.0161 31.4474 25.147 31.2193C24.6691 30.9956 24.1911 30.7718 23.7131 30.5481C23.6477 30.6621 23.6203 30.7979 23.5548 30.9119C23.3965 31.276 23.2301 31.6101 23.0718 31.9739C23.4358 32.1323 23.7997 32.2906 24.1337 32.457C24.2178 32.5305 24.3618 32.5878 24.4758 32.6532Z" fill="black"/>
<path id="Vector_17" d="M20.6265 31.4808C20.2246 31.3007 19.8145 31.0906 19.4126 30.9106C19.5273 30.6227 19.68 30.3565 19.7946 30.0686C19.9174 29.8105 20.062 29.5145 20.1848 29.2567C19.7125 28.935 19.27 28.6053 18.8195 28.2458C18.1085 27.6356 17.4193 26.9876 16.8635 26.2389C16.7551 26.0759 16.8124 25.9318 16.9078 25.8097C16.9296 25.7716 16.9595 25.7635 16.9894 25.7555C17.0193 25.7474 17.0411 25.7093 17.071 25.7012C17.101 25.6932 17.101 25.6932 17.1309 25.6851C17.2206 25.6606 17.3564 25.6882 17.4487 25.7917C17.7795 26.1837 18.1104 26.5757 18.493 26.9216C18.8457 27.2755 19.2283 27.6213 19.6328 27.9294C19.915 28.1417 20.1892 28.3245 20.4634 28.507C20.5531 28.4825 20.6292 28.5262 20.727 28.5318C20.8248 28.5374 20.879 28.6192 20.9769 28.6248C21.3109 28.7912 21.6449 28.9576 21.9708 29.094C22.3048 29.2604 22.6307 29.397 22.9647 29.5635C22.7846 29.9654 22.6045 30.3673 22.3945 30.7773C22.2143 31.1793 22.0043 31.5893 21.8242 31.9912C21.4303 31.8409 21.0284 31.6608 20.6265 31.4808ZM22.2493 29.8854C22.1733 29.8418 22.0674 29.8064 21.9913 29.7627C21.5894 29.5827 21.2174 29.3943 20.8154 29.2142C20.7936 29.2523 20.7799 29.3202 20.7581 29.3583C20.5562 29.7981 20.376 30.2 20.1741 30.64C20.6521 30.8638 21.13 31.0875 21.608 31.3113C21.7937 30.8114 22.0256 30.3636 22.2493 29.8854Z" fill="black"/>
<path id="Vector_18" d="M21.0059 35.1345C21.1068 34.9145 21.186 34.7326 21.2869 34.5126C21.5244 33.9665 21.7999 33.4425 22.0374 32.8968C22.081 32.8205 22.0947 32.7527 22.1383 32.6768C22.5022 32.8351 22.8443 33.0313 23.2083 33.1896C23.4662 33.3124 23.6862 33.4134 23.9442 33.5361C24.1343 33.6452 24.3461 33.7165 24.5362 33.8252C24.1897 34.5612 23.8432 35.2972 23.4966 36.0332C23.453 36.1092 23.4393 36.177 23.3956 36.2533C22.6678 35.9366 21.9618 35.582 21.2339 35.2653C21.1878 35.2136 21.1118 35.1699 21.0059 35.1345ZM21.7375 34.8721C21.9194 34.9514 22.1394 35.0521 22.3214 35.1314C22.4273 35.1671 22.5033 35.2105 22.6093 35.2461C22.7912 35.3251 22.9813 35.4342 23.1632 35.5136C23.2779 35.2257 23.4225 34.9297 23.5453 34.6716C23.6245 34.4897 23.7335 34.2997 23.8127 34.1175C23.3727 33.9157 22.9328 33.7137 22.4928 33.5119C22.4548 33.4899 22.4168 33.4682 22.3788 33.4462C22.3651 33.5144 22.3134 33.5603 22.2996 33.6285C22.2205 33.8104 22.1414 33.9923 22.0622 34.1742C21.9612 34.3942 21.8602 34.6142 21.7593 34.8343C21.7512 34.8042 21.7593 34.8343 21.7375 34.8721Z" fill="black"/>
<path id="Vector_19" d="M19.2132 31.4785C19.3952 31.5578 19.5472 31.6449 19.7292 31.7243C19.65 31.9062 19.5628 32.0583 19.4836 32.2402C19.3017 32.1609 19.1496 32.0738 18.9677 31.9945C19.0549 31.8426 19.1341 31.6607 19.2132 31.4785Z" fill="black"/>
<path id="Vector_20" d="M21.1332 32.4023C21.3151 32.4814 21.489 32.5306 21.641 32.618C21.4746 32.9521 21.3382 33.2778 21.1717 33.6119C20.9898 33.5328 20.8377 33.4455 20.6558 33.3664C20.8222 33.0324 20.9967 32.7284 21.1332 32.4023Z" fill="black"/>
<path id="Vector_21" d="M20.5004 35.0461C19.7726 34.7294 19.0665 34.3749 18.3306 34.0284C18.2546 33.9847 18.1486 33.9491 18.0726 33.9057C18.1954 33.6476 18.3101 33.3597 18.4329 33.1018C18.4466 33.034 18.4983 32.9878 18.512 32.9199C18.618 32.9552 18.694 32.9989 18.808 33.0643C18.884 33.108 18.952 33.1217 19.028 33.1654C18.9407 33.3175 18.8535 33.4694 18.7961 33.6135C18.9482 33.7006 19.1302 33.7799 19.2741 33.8372C19.3532 33.6553 19.4542 33.4353 19.5334 33.2534C19.6481 32.9655 19.7927 32.6692 19.9453 32.4033C20.1192 32.4526 20.2712 32.5397 20.4532 32.619C20.2295 33.0969 20.0138 33.6048 19.7521 34.061C19.9041 34.148 20.0779 34.1973 20.23 34.2847C20.3172 34.1325 20.3665 33.9587 20.4538 33.8065C20.6357 33.8859 20.7797 33.9432 20.9317 34.0303C20.8033 34.3864 20.6668 34.7121 20.5004 35.0461Z" fill="black"/>
<path id="Vector_22" d="M12.7492 40.8046C12.8061 36.3908 13.5261 32.0541 14.8874 27.833C14.9584 27.621 15.6134 27.6684 15.5504 27.9101C14.1811 32.1015 13.4829 36.4001 13.4178 40.7842C13.4228 41.0395 12.746 41.0302 12.7492 40.8046Z" fill="black"/>
<path id="Vector_23" d="M37.9638 28.873C43.3452 31.9106 49.267 33.7424 55.4141 34.3895C56.3407 34.4918 55.6034 34.8519 55.0462 34.8103C48.6357 34.1382 42.4204 32.2893 36.7729 29.0989C36.4689 28.9245 37.6976 28.7203 37.9638 28.873Z" fill="black"/>
<path id="Vector_24" d="M37.0996 37.7752C41.731 39.3464 46.6528 39.6191 51.4853 39.5627C51.8984 39.5472 51.8978 39.9005 51.4847 39.916C46.5242 39.9749 41.4667 39.6749 36.7593 38.06C36.3438 37.9479 36.8498 37.6823 37.0996 37.7752Z" fill="black"/>
<path id="Vector_25" d="M56.1064 34.8121C56.9245 36.2921 56.5099 38.5553 55.3527 39.7357C55.1538 39.9498 54.5262 39.7667 54.7766 39.5064C55.8306 38.4183 56.2257 36.3206 55.4699 34.9521C55.2911 34.6475 55.9654 34.5291 56.1064 34.8121Z" fill="black"/>
<path id="Vector_26" d="M15.9059 23.7697C13.3728 22.2403 11.339 19.7089 9.58737 17.39C7.47251 14.5595 5.47795 11.3432 4.7478 7.81663C4.69921 7.63714 5.70501 7.55744 5.76978 7.79674C6.52174 11.2853 8.47022 14.4499 10.5851 17.2804C12.2987 19.5775 14.3244 22.079 16.8195 23.5866C17.0258 23.7555 16.1041 23.9087 15.9059 23.7697Z" fill="black"/>
<path id="Vector_27" d="M13.129 35.2122C6.55815 28.6117 0.629854 19.8789 0.20167 10.2347C0.174895 10.0172 0.881552 10.0185 0.878422 10.2441C1.31222 19.7905 7.20249 28.5014 13.6974 35.0582C13.9118 35.2571 13.2593 35.3374 13.129 35.2122Z" fill="black"/>
<path id="Vector_28" d="M4.69661 7.50894C3.32755 7.07701 1.47232 7.93251 0.682084 9.04544C0.543095 9.24359 -0.119929 9.16627 0.0190285 8.96813C1.04361 7.53492 3.28209 6.67194 5.03688 7.22418C5.45254 7.33636 4.93842 7.57188 4.69661 7.50894Z" fill="black"/>
<path id="Vector_29" d="M0.0844249 8.85359C1.04916 7.43659 3.28203 6.67145 4.9309 7.18817C5.31663 7.30844 5.21815 7.65618 4.83242 7.53588C3.39539 7.09024 1.48036 7.96192 0.676421 9.14278C0.529344 9.31103 -0.0763806 9.08976 0.0844249 8.85359Z" fill="black"/>
</g>
</svg>
