<svg xmlns="http://www.w3.org/2000/svg" width="93" height="78" viewBox="0 0 93 78" fill="none">
  <path opacity="0.1" d="M92.7 60C92.7 48.6 84.6 41.7 74.7 41.7C71.7 41.7 69.6 42.6 68.7 43.2C69 30.9 78 17.1 91.2 14.1V0C74.4 1.79999 51.3 17.1 51.3 52.5C51.3 69.6 61.5 78 73.2 78C84.3 78 92.7 69.9 92.7 60ZM41.4 60C41.4 48.6 33.3 41.7 23.4 41.7C20.4 41.7 18.3 42.6 17.4 43.2C17.7 30.9 26.7 17.1 39.9 14.1V0C23.1 1.79999 0 17.1 0 52.5C0 69.6 10.2 78 21.9 78C33 78 41.4 69.9 41.4 60Z" fill="url(#paint0_linear_837_458)"/>
  <defs>
    <linearGradient id="paint0_linear_837_458" x1="55.4346" y1="51.1192" x2="69.3522" y2="69.4853" gradientUnits="userSpaceOnUse">
      <stop stop-color="#E1E1E9"/>
      <stop offset="1" stop-color="white" stop-opacity="0.44"/>
    </linearGradient>
  </defs>
</svg>