<svg xmlns="http://www.w3.org/2000/svg" width="93" height="78" viewBox="0 0 93 78" fill="none">
  <path opacity="0.1" d="M0 18C0 29.4 8.1 36.3 18 36.3C21 36.3 23.1 35.4 24 34.8C23.7 47.7 14.7 60.9 1.5 63.9V78C18.3 75.6 41.4 60.9 41.4 25.5C41.4 8.4 31.2 0 19.5 0C8.4 0 0 8.1 0 18ZM51.3 18C51.3 29.4 59.4 36.3 69.3 36.3C72.3 36.3 74.4 35.4 75.3 34.8C75 47.7 66 60.9 52.8 63.9V78C69.6 75.6 92.7 60.9 92.7 25.5C92.7 8.4 82.5 0 70.8 0C59.7 0 51.3 8.1 51.3 18Z" fill="url(#paint0_linear_837_459)"/>
  <defs>
    <linearGradient id="paint0_linear_837_459" x1="55.4346" y1="51.1192" x2="69.3522" y2="69.4853" gradientUnits="userSpaceOnUse">
      <stop stop-color="#E1E1E9"/>
      <stop offset="1" stop-color="white" stop-opacity="0.44"/>
    </linearGradient>
  </defs>
</svg>