<svg width="184" height="44" viewBox="0 0 184 44" fill="none" xmlns="http://www.w3.org/2000/svg">
<path d="M5.08461 19.4882V7.21608H0.218506V2.87219H15.5527V7.21608H10.6866V19.4882H5.08461Z" fill="url(#paint0_linear_1129_1571)"/>
<path d="M16.8415 19.4882V6.50396H22.2061V19.4882H16.8415ZM19.5238 5.45953C18.5427 5.45953 17.7594 5.19842 17.1738 4.67621C16.5883 4.15399 16.2956 3.50518 16.2956 2.72977C16.2956 1.95435 16.5883 1.30554 17.1738 0.783324C17.7594 0.261108 18.5427 0 19.5238 0C20.5049 0 21.2883 0.245283 21.8738 0.73585C22.4593 1.22642 22.7521 1.85941 22.7521 2.63482C22.7521 3.4577 22.4593 4.13817 21.8738 4.67621C21.2883 5.19842 20.5049 5.45953 19.5238 5.45953Z" fill="url(#paint1_linear_1129_1571)"/>
<path d="M29.0702 17.3518L29.1889 11.0377L33.6752 6.50396H40.013L34.0787 12.7231L31.3964 14.8832L29.0702 17.3518ZM24.5839 19.4882V1.87523H29.9485V19.4882H24.5839ZM33.96 19.4882L30.3995 14.9781L33.6989 10.9191L40.4403 19.4882H33.96Z" fill="url(#paint2_linear_1129_1571)"/>
<path d="M45.5118 19.4882V7.21608H40.6457V2.87219H55.9799V7.21608H51.1138V19.4882H45.5118Z" fill="url(#paint3_linear_1129_1571)"/>
<path d="M62.8307 19.7255C61.359 19.7255 60.0534 19.4407 58.914 18.871C57.7905 18.2855 56.9043 17.4863 56.2555 16.4735C55.6067 15.4608 55.2823 14.2976 55.2823 12.9842C55.2823 11.6707 55.6067 10.5076 56.2555 9.49484C56.9043 8.48205 57.7905 7.69082 58.914 7.12113C60.0534 6.55144 61.359 6.26659 62.8307 6.26659C64.3024 6.26659 65.6079 6.55144 66.7473 7.12113C67.8867 7.69082 68.7728 8.48205 69.4058 9.49484C70.0546 10.5076 70.379 11.6707 70.379 12.9842C70.379 14.2976 70.0546 15.4608 69.4058 16.4735C68.7728 17.4863 67.8867 18.2855 66.7473 18.871C65.6079 19.4407 64.3024 19.7255 62.8307 19.7255ZM62.8307 15.5478C63.2263 15.5478 63.5823 15.4528 63.8988 15.263C64.2153 15.0731 64.4685 14.7882 64.6584 14.4084C64.8483 14.0128 64.9433 13.5381 64.9433 12.9842C64.9433 12.4145 64.8483 11.9477 64.6584 11.5837C64.4685 11.2039 64.2153 10.9191 63.8988 10.7292C63.5823 10.5393 63.2263 10.4443 62.8307 10.4443C62.435 10.4443 62.079 10.5393 61.7625 10.7292C61.446 10.9191 61.1928 11.2039 61.0029 11.5837C60.813 11.9477 60.718 12.4145 60.718 12.9842C60.718 13.5381 60.813 14.0128 61.0029 14.4084C61.1928 14.7882 61.446 15.0731 61.7625 15.263C62.079 15.4528 62.435 15.5478 62.8307 15.5478Z" fill="url(#paint4_linear_1129_1571)"/>
<path d="M76.5444 17.3518L76.6631 11.0377L81.1494 6.50396H87.4872L81.5529 12.7231L78.8706 14.8832L76.5444 17.3518ZM72.0581 19.4882V1.87523H77.4227V19.4882H72.0581ZM81.4342 19.4882L77.8737 14.9781L81.1731 10.9191L87.9145 19.4882H81.4342Z" fill="url(#paint5_linear_1129_1571)"/>
<path d="M99.8707 19.4882V7.21608H95.0046V2.87219H110.339V7.21608H105.473V19.4882H99.8707Z" fill="url(#paint6_linear_1129_1571)"/>
<path d="M116.808 19.7255C115.779 19.7255 114.846 19.5198 114.007 19.1084C113.184 18.6811 112.535 18.0244 112.06 17.1382C111.586 16.2362 111.348 15.081 111.348 13.6726V6.50396H116.713V12.7468C116.713 13.6647 116.863 14.3056 117.164 14.6695C117.465 15.0335 117.876 15.2155 118.398 15.2155C118.715 15.2155 119.007 15.1364 119.277 14.9781C119.561 14.804 119.791 14.5271 119.965 14.1473C120.139 13.7517 120.226 13.2374 120.226 12.6044V6.50396H125.591V19.4882H120.487V15.7377L121.508 16.7584C121.049 17.7712 120.392 18.5228 119.538 19.0134C118.699 19.4882 117.789 19.7255 116.808 19.7255Z" fill="url(#paint7_linear_1129_1571)"/>
<path d="M136.99 6.26659C137.987 6.26659 138.889 6.47231 139.696 6.88376C140.503 7.27938 141.136 7.90445 141.595 8.75899C142.07 9.61352 142.307 10.7213 142.307 12.0822V19.4882H136.943V13.0079C136.943 12.2009 136.8 11.6312 136.515 11.2989C136.231 10.9507 135.843 10.7766 135.352 10.7766C134.988 10.7766 134.648 10.8637 134.332 11.0377C134.031 11.196 133.786 11.465 133.596 11.8448C133.422 12.2246 133.335 12.7389 133.335 13.3877V19.4882H127.97V6.50396H133.074V10.3019L132.053 9.20999C132.559 8.22886 133.24 7.49301 134.094 7.00244C134.965 6.51188 135.93 6.26659 136.99 6.26659Z" fill="url(#paint8_linear_1129_1571)"/>
<path d="M144.637 19.4882V6.50396H150.002V19.4882H144.637ZM147.319 5.45953C146.338 5.45953 145.555 5.19842 144.969 4.67621C144.384 4.15399 144.091 3.50518 144.091 2.72977C144.091 1.95435 144.384 1.30554 144.969 0.783324C145.555 0.261108 146.338 0 147.319 0C148.3 0 149.084 0.245283 149.669 0.73585C150.255 1.22642 150.548 1.85941 150.548 2.63482C150.548 3.4577 150.255 4.13817 149.669 4.67621C149.084 5.19842 148.3 5.45953 147.319 5.45953Z" fill="url(#paint9_linear_1129_1571)"/>
<path d="M161.399 6.26659C162.396 6.26659 163.298 6.47231 164.105 6.88376C164.913 7.27938 165.546 7.90445 166.004 8.75899C166.479 9.61352 166.717 10.7213 166.717 12.0822V19.4882H161.352V13.0079C161.352 12.2009 161.21 11.6312 160.925 11.2989C160.64 10.9507 160.252 10.7766 159.762 10.7766C159.398 10.7766 159.057 10.8637 158.741 11.0377C158.44 11.196 158.195 11.465 158.005 11.8448C157.831 12.2246 157.744 12.7389 157.744 13.3877V19.4882H152.379V6.50396H157.483V10.3019L156.462 9.20999C156.969 8.22886 157.649 7.49301 158.504 7.00244C159.374 6.51188 160.339 6.26659 161.399 6.26659Z" fill="url(#paint10_linear_1129_1571)"/>
<path d="M175.877 24.3305C174.595 24.3305 173.393 24.196 172.269 23.927C171.145 23.658 170.18 23.2544 169.373 22.7164L171.177 19.0609C171.684 19.4565 172.324 19.7651 173.1 19.9866C173.891 20.224 174.635 20.3427 175.331 20.3427C176.439 20.3427 177.23 20.1053 177.705 19.6306C178.18 19.1717 178.417 18.507 178.417 17.6367V16.5448L178.654 12.5094L178.678 8.47414V6.50396H183.782V16.9008C183.782 19.4169 183.085 21.2843 181.693 22.5028C180.3 23.7213 178.362 24.3305 175.877 24.3305ZM174.833 18.776C173.741 18.776 172.72 18.5228 171.771 18.0165C170.821 17.4942 170.054 16.7663 169.468 15.8326C168.883 14.899 168.59 13.7913 168.59 12.5094C168.59 11.2276 168.883 10.1199 169.468 9.18626C170.054 8.2526 170.821 7.53257 171.771 7.02618C172.72 6.51979 173.741 6.26659 174.833 6.26659C175.956 6.26659 176.874 6.48814 177.586 6.93123C178.314 7.37432 178.852 8.0627 179.2 8.99636C179.548 9.91419 179.722 11.0852 179.722 12.5094C179.722 13.9337 179.548 15.1126 179.2 16.0463C178.852 16.9641 178.314 17.6525 177.586 18.1114C176.874 18.5545 175.956 18.776 174.833 18.776ZM176.257 14.5983C176.684 14.5983 177.064 14.5113 177.396 14.3372C177.729 14.1631 177.99 13.9178 178.18 13.6014C178.369 13.2849 178.464 12.9209 178.464 12.5094C178.464 12.0822 178.369 11.7182 178.18 11.4175C177.99 11.101 177.729 10.8637 177.396 10.7054C177.064 10.5314 176.684 10.4443 176.257 10.4443C175.845 10.4443 175.466 10.5314 175.117 10.7054C174.785 10.8637 174.516 11.101 174.31 11.4175C174.121 11.7182 174.026 12.0822 174.026 12.5094C174.026 12.9209 174.121 13.2849 174.31 13.6014C174.516 13.9178 174.785 14.1631 175.117 14.3372C175.466 14.5113 175.845 14.5983 176.257 14.5983Z" fill="url(#paint11_linear_1129_1571)"/>
<path d="M12.1468 32.7386C12.381 32.7386 12.6884 32.7727 13.069 32.8411C13.4496 32.8996 13.8204 33.0021 14.1815 33.1485C14.5425 33.2948 14.8548 33.4851 15.1183 33.7193C15.3818 33.9438 15.5135 34.2219 15.5135 34.5537C15.5135 35.0611 15.3622 35.4954 15.0597 35.8565C14.7572 36.2078 14.3717 36.4956 13.9033 36.7201C13.4447 36.9445 12.9421 37.1104 12.3956 37.2178C11.8589 37.3154 11.3515 37.3642 10.8733 37.3642C10.3463 37.3642 9.92671 37.3446 9.61444 37.3056C9.30216 37.2763 9.06308 37.2422 8.89718 37.2031C8.74104 37.1544 8.63858 37.1056 8.58979 37.0568C8.55075 37.008 8.53124 36.9689 8.53124 36.9397C8.53124 36.8714 8.63858 36.803 8.85327 36.7347C9.07772 36.6567 9.3412 36.5835 9.64371 36.5152C9.94623 36.4371 10.2536 36.3639 10.5659 36.2956C10.8879 36.2273 11.1417 36.1639 11.3271 36.1053C11.493 36.0565 11.7174 35.9736 12.0004 35.8565C12.2932 35.7394 12.5762 35.6174 12.8494 35.4905C13.1324 35.3539 13.3715 35.227 13.5667 35.1099C13.7716 34.9831 13.8741 34.8904 13.8741 34.8318C13.8741 34.744 13.7911 34.6659 13.6252 34.5976C13.4593 34.5293 13.2641 34.4756 13.0397 34.4366C12.825 34.3878 12.6054 34.3536 12.381 34.3341C12.1663 34.3048 12.0053 34.2902 11.8979 34.2902C11.3515 34.2902 10.8587 34.3341 10.4195 34.422C9.99014 34.5098 9.57053 34.6464 9.16066 34.8318C9.17042 34.8318 9.14603 34.9148 9.08747 35.0807C9.02892 35.2466 8.95085 35.4515 8.85327 35.6954C8.75568 35.9394 8.64834 36.2029 8.53124 36.4859C8.41413 36.7689 8.30191 37.0324 8.19456 37.2763C8.08722 37.5203 7.98963 37.7204 7.90181 37.8765C7.81398 38.0424 7.75543 38.1253 7.72615 38.1253C7.64808 38.1253 7.58953 38.0668 7.5505 37.9497C7.51146 37.8326 7.48219 37.6716 7.46267 37.4666C7.44315 37.2617 7.43339 37.0226 7.43339 36.7494C7.43339 36.4664 7.43339 36.159 7.43339 35.8272L7.31629 35.915C6.97474 35.9248 6.71126 35.8369 6.52585 35.6515C6.35019 35.4661 6.25749 35.1636 6.24773 34.744C6.39411 34.5878 6.55512 34.4415 6.73078 34.3048C6.87716 34.1877 7.04305 34.0706 7.22846 33.9535C7.41388 33.8267 7.60417 33.7242 7.79934 33.6461C7.93596 33.1094 8.12138 32.5093 8.35558 31.8457C8.59955 31.1723 8.86791 30.4941 9.16066 29.811C9.46318 29.1182 9.79009 28.4448 10.1414 27.791C10.5025 27.1372 10.8684 26.5468 11.2392 26.0198C11.3563 25.9905 11.4881 25.9905 11.6345 26.0198C11.7808 26.0393 11.9175 26.0881 12.0443 26.1662C12.1809 26.2443 12.2932 26.3565 12.381 26.5029C12.4688 26.6395 12.5127 26.8151 12.5127 27.0298C11.9663 27.8398 11.4344 28.7376 10.9172 29.7232C10.4 30.7088 9.99502 31.8066 9.70227 33.0167C10.0633 32.9191 10.4586 32.8508 10.8879 32.8118C11.3173 32.763 11.7369 32.7386 12.1468 32.7386Z" fill="url(#paint12_linear_1129_1571)"/>
<path d="M23.6506 32.519C23.9726 32.519 24.2263 32.5971 24.4117 32.7532C24.5971 32.9094 24.7338 33.0997 24.8216 33.3241C24.9192 33.5486 24.9777 33.7828 24.9972 34.0267C25.0265 34.2609 25.0412 34.461 25.0412 34.6269C25.0412 35.6223 24.8704 36.6176 24.5288 37.613C24.197 38.6181 23.7091 39.5452 23.065 40.3942C22.421 41.2432 21.6305 41.9751 20.6937 42.5899C19.7569 43.2144 18.6883 43.6389 17.488 43.8634C17.3807 43.8829 17.2489 43.9024 17.0928 43.9219C16.9367 43.9512 16.7854 43.9707 16.639 43.9805C16.4926 44 16.3658 44.0049 16.2584 43.9951C16.1608 43.9951 16.1121 43.9756 16.1121 43.9366C16.1121 43.8683 16.1755 43.7902 16.3023 43.7024C16.439 43.6145 16.6146 43.5121 16.8293 43.395C17.044 43.2876 17.288 43.1656 17.5612 43.029C17.8344 42.9022 18.1126 42.7558 18.3956 42.5899C19.0982 42.1898 19.7569 41.6872 20.3717 41.0822C20.9962 40.4869 21.5378 39.8331 21.9965 39.1207C22.4551 38.4083 22.8162 37.6569 23.0797 36.8665C23.3432 36.076 23.4749 35.2905 23.4749 34.5098C23.2017 34.8123 22.8845 35.1343 22.5234 35.4759C22.1624 35.8174 21.7818 36.1346 21.3817 36.4273C20.9816 36.7103 20.5668 36.9494 20.1375 37.1446C19.7178 37.33 19.308 37.4227 18.9079 37.4227C18.7615 37.4227 18.5907 37.3983 18.3956 37.3495C18.2004 37.3007 18.0101 37.208 17.8247 37.0714C17.649 36.9348 17.4978 36.7445 17.3709 36.5005C17.244 36.2468 17.1806 35.9199 17.1806 35.5198C17.1806 35.3832 17.1953 35.2124 17.2245 35.0075C17.2538 34.7928 17.288 34.5732 17.327 34.3488C17.3758 34.1243 17.4295 33.9047 17.488 33.6901C17.5466 33.4754 17.61 33.2948 17.6783 33.1485C17.8247 33.0021 17.9808 32.8996 18.1467 32.8411C18.3126 32.7825 18.4639 32.7776 18.6005 32.8264C18.7469 32.8655 18.8689 32.9582 18.9664 33.1045C19.064 33.2412 19.1177 33.4363 19.1275 33.6901C18.8835 34.3048 18.7615 34.944 18.7615 35.6076C18.7615 35.7442 18.8054 35.8125 18.8932 35.8125C19.2153 35.8125 19.5276 35.7345 19.8301 35.5783C20.1423 35.4124 20.44 35.2075 20.723 34.9636C21.006 34.7196 21.2792 34.4561 21.5427 34.1731C21.8159 33.8803 22.0745 33.612 22.3185 33.368C22.5625 33.1241 22.7918 32.924 23.0065 32.7679C23.2309 32.602 23.4456 32.519 23.6506 32.519Z" fill="url(#paint13_linear_1129_1571)"/>
<path d="M42.9159 26.3565C43.033 26.4931 43.116 26.6346 43.1648 26.781C43.2233 26.9274 43.2331 27.0689 43.1941 27.2055C43.1648 27.3323 43.0818 27.4494 42.9452 27.5568C42.8086 27.6641 42.6134 27.7471 42.3597 27.8056C42.3402 27.8056 42.2768 27.7861 42.1694 27.7471C42.0718 27.708 41.9401 27.669 41.7742 27.63C41.6083 27.5812 41.4131 27.5373 41.1887 27.4982C40.9642 27.4592 40.7154 27.4397 40.4421 27.4397C40.0323 27.4397 39.7151 27.5178 39.4907 27.6739C39.276 27.8203 39.1686 27.9715 39.1686 28.1277C39.1686 28.3033 39.237 28.518 39.3736 28.7717C39.52 29.0255 39.7005 29.3085 39.9152 29.6207C40.0713 29.8647 40.2372 30.1135 40.4129 30.3673C40.5983 30.621 40.7642 30.8942 40.9106 31.187C41.0667 31.47 41.1936 31.7823 41.2911 32.1238C41.3887 32.4556 41.4375 32.8215 41.4375 33.2216C41.4375 33.8267 41.3204 34.3878 41.0862 34.905C40.8618 35.4222 40.5495 35.8662 40.1494 36.237C39.7493 36.6079 39.2809 36.9006 38.7441 37.1153C38.2074 37.3202 37.6317 37.4227 37.0169 37.4227C36.4411 37.4227 35.9581 37.3593 35.5677 37.2324C35.1774 37.0958 34.8554 36.9445 34.6016 36.7786C34.3577 36.603 34.182 36.4322 34.0747 36.2663C33.9673 36.1004 33.9137 35.9784 33.9137 35.9004C33.9137 35.8321 33.9624 35.8125 34.06 35.8418C34.1576 35.8711 34.2991 35.9199 34.4845 35.9882C34.6699 36.0565 34.8944 36.1248 35.1579 36.1931C35.4214 36.2614 35.7239 36.2956 36.0654 36.2956C36.5631 36.2956 37.0413 36.2127 37.4999 36.0468C37.9586 35.8711 38.3636 35.6467 38.7149 35.3734C39.0662 35.0904 39.3443 34.7781 39.5492 34.4366C39.7542 34.0853 39.8566 33.7291 39.8566 33.368C39.8566 33.0362 39.7981 32.7191 39.681 32.4166C39.5736 32.114 39.437 31.8213 39.2711 31.5383C39.1052 31.2553 38.9198 30.9772 38.7149 30.7039C38.5197 30.4209 38.3392 30.1428 38.1733 29.8696C38.0074 29.5963 37.8659 29.3231 37.7488 29.0498C37.6414 28.7668 37.5878 28.4741 37.5878 28.1716C37.5878 27.7032 37.7 27.3226 37.9244 27.0298C38.1586 26.7273 38.4319 26.4931 38.7441 26.3272C39.0564 26.1516 39.3785 26.0344 39.7103 25.9759C40.0518 25.9173 40.3299 25.8881 40.5446 25.8881C40.8862 25.8881 41.2033 25.9125 41.4961 25.9613C41.7888 26.0101 42.0426 26.0637 42.2572 26.1223C42.511 26.1906 42.7305 26.2687 42.9159 26.3565Z" fill="url(#paint14_linear_1129_1571)"/>
<path d="M45.9654 37.3788C45.6044 37.3788 45.336 37.2422 45.1603 36.9689C44.9847 36.6957 44.8627 36.3493 44.7944 35.9296C44.7358 35.5003 44.7163 35.0221 44.7358 34.4951C44.7554 33.9682 44.7895 33.4461 44.8383 32.9289C45.092 32.7727 45.3799 32.7093 45.7019 32.7386C46.024 32.7679 46.2826 32.8899 46.4777 33.1045C46.3606 33.5827 46.3021 34.0511 46.3021 34.5098C46.3021 34.9684 46.3265 35.349 46.3753 35.6515C46.5705 35.5052 46.7998 35.3295 47.0633 35.1246C47.3267 34.9196 47.6049 34.7098 47.8976 34.4951C48.1904 34.2707 48.4831 34.0511 48.7759 33.8364C49.0784 33.6217 49.3614 33.4315 49.6249 33.2656C49.8981 33.0899 50.1421 32.9533 50.3568 32.8557C50.5812 32.7484 50.7618 32.6947 50.8984 32.6947C51.0057 32.6947 51.0594 32.7435 51.0594 32.8411C51.0594 32.9484 50.9716 33.1387 50.7959 33.4119C50.63 33.6754 50.4056 33.9779 50.1226 34.3195C49.8396 34.6513 49.5176 34.9977 49.1565 35.3588C48.8052 35.7198 48.4392 36.0516 48.0586 36.3541C47.6781 36.6469 47.3072 36.8909 46.9462 37.086C46.5851 37.2812 46.2582 37.3788 45.9654 37.3788Z" fill="url(#paint15_linear_1129_1571)"/>
<path d="M53.6462 36.3102C53.451 36.564 53.2705 36.7933 53.1046 36.9982C52.9484 37.2031 52.8021 37.3056 52.6655 37.3056C52.5679 37.3056 52.48 37.2617 52.402 37.1739C52.3337 37.0763 52.2751 36.9641 52.2263 36.8372C52.1873 36.7006 52.1531 36.5542 52.1239 36.3981C52.1043 36.2419 52.0946 36.0955 52.0946 35.9589C52.1239 35.793 52.1824 35.5637 52.2702 35.2709C52.3581 34.9684 52.4605 34.6562 52.5776 34.3341C52.6947 34.0121 52.8167 33.7096 52.9436 33.4266C53.0704 33.1338 53.1875 32.9142 53.2949 32.7679C53.5486 32.7971 53.7877 32.8899 54.0121 33.046C54.2463 33.1924 54.4318 33.3729 54.5684 33.5876C54.3634 34.0462 54.1878 34.4854 54.0414 34.905C53.895 35.3149 53.7633 35.7833 53.6462 36.3102ZM54.9343 30.338C54.9929 30.338 55.0661 30.3429 55.1539 30.3526C55.2417 30.3624 55.3247 30.3917 55.4027 30.4404C55.4906 30.4892 55.5637 30.5722 55.6223 30.6893C55.6809 30.8064 55.7101 30.9674 55.7101 31.1723C55.7101 31.3382 55.6613 31.4846 55.5638 31.6115C55.4662 31.7286 55.3491 31.8262 55.2124 31.9042C55.0856 31.9823 54.949 32.0457 54.8026 32.0945C54.666 32.1336 54.5537 32.1531 54.4659 32.1531C54.2903 32.1531 54.1536 32.1238 54.056 32.0653C53.9682 31.9969 53.8999 31.9238 53.8511 31.8457C53.8121 31.7579 53.7877 31.6749 53.7779 31.5968C53.7779 31.509 53.7779 31.4407 53.7779 31.3919C53.7779 31.265 53.8121 31.1382 53.8804 31.0113C53.9585 30.8845 54.0512 30.7722 54.1585 30.6747C54.2659 30.5673 54.3878 30.4844 54.5245 30.4258C54.6611 30.3673 54.7977 30.338 54.9343 30.338Z" fill="url(#paint16_linear_1129_1571)"/>
<path d="M56.2745 34.8757C56.1867 34.8367 56.1086 34.7635 56.0403 34.6562C55.972 34.5391 55.9183 34.4122 55.8793 34.2756C55.85 34.1292 55.8354 33.9779 55.8354 33.8218C55.8451 33.6657 55.8793 33.5144 55.9378 33.368C56.1525 33.3095 56.3867 33.2558 56.6404 33.207C56.8551 33.1582 57.0991 33.1143 57.3723 33.0753C57.6553 33.0362 57.953 33.007 58.2652 32.9874C58.4604 32.4312 58.7141 31.8262 59.0264 31.1723C59.3387 30.5185 59.6607 29.8842 59.9925 29.2694C60.3341 28.6449 60.6659 28.0691 60.9879 27.5421C61.3099 27.0054 61.5832 26.576 61.8076 26.254C61.9345 26.2443 62.0613 26.2491 62.1882 26.2687C62.3248 26.2882 62.4517 26.3321 62.5688 26.4004C62.6859 26.4687 62.7883 26.5663 62.8762 26.6932C62.9738 26.8103 63.0421 26.9664 63.0811 27.1616C62.9835 27.2982 62.8518 27.4982 62.6859 27.7617C62.52 28.0154 62.3346 28.3131 62.1296 28.6546C61.9345 28.9962 61.7247 29.3621 61.5002 29.7525C61.2758 30.1428 61.0611 30.5332 60.8561 30.9235C60.661 31.3041 60.4756 31.6749 60.2999 32.036C60.134 32.3873 60.0071 32.6996 59.9193 32.9728C60.4072 32.9728 60.8464 33.0167 61.2367 33.1045C61.6271 33.1924 61.9589 33.2997 62.2321 33.4266C62.5053 33.5534 62.7152 33.6803 62.8615 33.8072C63.0079 33.934 63.0811 34.0316 63.0811 34.0999C63.0811 34.2073 62.9396 34.2951 62.6566 34.3634C62.3834 34.4317 62.0516 34.4854 61.6612 34.5244C61.2709 34.5537 60.861 34.5732 60.4316 34.583C60.0023 34.5927 59.6412 34.5927 59.3484 34.583C59.2606 34.8172 59.1874 35.0465 59.1289 35.2709C59.0703 35.4661 59.0167 35.671 58.9679 35.8857C58.9288 36.1004 58.9093 36.2907 58.9093 36.4566C58.9093 36.6323 58.9239 36.7786 58.9532 36.8957C58.9923 37.0031 59.0264 37.0958 59.0557 37.1739C59.0947 37.2422 59.1289 37.291 59.1581 37.3202C59.1972 37.3593 59.2167 37.3934 59.2167 37.4227C59.2167 37.5008 59.1679 37.5398 59.0703 37.5398C59.0118 37.5398 58.9142 37.5203 58.7776 37.4813C58.6409 37.4422 58.5043 37.3593 58.3677 37.2324C58.2408 37.1056 58.1237 36.9201 58.0164 36.6762C57.9188 36.4322 57.87 36.1053 57.87 35.6954C57.87 35.5198 57.87 35.349 57.87 35.1831C57.8798 35.0075 57.8944 34.8172 57.9139 34.6122C57.4553 34.661 57.0698 34.7147 56.7575 34.7733C56.5819 34.8123 56.4209 34.8464 56.2745 34.8757Z" fill="url(#paint17_linear_1129_1571)"/>
<path d="M71.3404 26.2833C71.721 26.2833 72.0137 26.4004 72.2187 26.6346C72.4236 26.8688 72.5261 27.1567 72.5261 27.4982C72.5261 27.8691 72.4236 28.2984 72.2187 28.7864C72.0137 29.2743 71.7405 29.7866 71.399 30.3233C71.0672 30.8503 70.6866 31.387 70.2572 31.9335C69.8376 32.4702 69.4082 32.9777 68.9691 33.4558C68.5397 33.9243 68.1201 34.3488 67.7102 34.7293C67.3101 35.1099 66.9588 35.4027 66.6563 35.6076C66.6465 35.6467 66.6368 35.6857 66.627 35.7247C66.627 35.7638 66.627 35.8125 66.627 35.8711C66.627 36.1443 66.6709 36.3639 66.7588 36.5298C66.8466 36.6957 66.9442 36.8323 67.0515 36.9397C67.1686 37.0373 67.2711 37.1202 67.3589 37.1885C67.4467 37.2568 67.4906 37.3349 67.4906 37.4227C67.4906 37.4813 67.4663 37.5301 67.4175 37.5691C67.3687 37.6179 67.3004 37.6423 67.2125 37.6423C67.1735 37.6423 67.0905 37.6374 66.9637 37.6276C66.8466 37.6179 66.71 37.5691 66.5538 37.4813C66.4074 37.4032 66.2513 37.2715 66.0854 37.086C65.9195 36.9006 65.7683 36.6323 65.6316 36.281C65.4657 36.3883 65.295 36.4908 65.1193 36.5884C64.9437 36.6859 64.7631 36.7738 64.5777 36.8518C64.08 36.8518 63.7775 36.725 63.6702 36.4713C63.5531 36.2175 63.6311 35.9053 63.9044 35.5344C64.0703 35.4466 64.2459 35.3441 64.4313 35.227C64.5972 35.1197 64.7875 34.9977 65.0022 34.8611C65.2267 34.7245 65.4657 34.5634 65.7195 34.378C65.8268 33.773 65.9976 33.1533 66.2318 32.519C66.466 31.875 66.7344 31.2553 67.0369 30.66C67.3491 30.055 67.6858 29.489 68.0469 28.962C68.408 28.4253 68.7788 27.9618 69.1594 27.5714C69.5399 27.1713 69.9157 26.859 70.2865 26.6346C70.6573 26.4004 71.0086 26.2833 71.3404 26.2833ZM70.8866 28.0252C70.4377 28.4351 70.0279 28.8693 69.6571 29.328C69.2862 29.7866 68.9496 30.2404 68.647 30.6893C68.3445 31.1382 68.0762 31.5773 67.842 32.0067C67.6175 32.4263 67.4223 32.802 67.2564 33.1338C67.6077 32.8118 67.9639 32.4556 68.325 32.0653C68.6958 31.6749 69.0471 31.2602 69.3789 30.821C69.7107 30.3819 70.0084 29.9281 70.2718 29.4597C70.5353 28.9815 70.7403 28.5034 70.8866 28.0252Z" fill="url(#paint18_linear_1129_1571)"/>
<path d="M79.7009 36.1492C79.8473 36.3346 79.979 36.481 80.0961 36.5884C80.223 36.6957 80.3303 36.7786 80.4182 36.8372C80.506 36.8957 80.5743 36.9445 80.6231 36.9836C80.6817 37.0129 80.7109 37.047 80.7109 37.086C80.7109 37.1348 80.6817 37.1787 80.6231 37.2178C80.5646 37.2471 80.4914 37.2617 80.4035 37.2617C80.2962 37.2617 80.1401 37.2373 79.9351 37.1885C79.74 37.1397 79.5204 37.047 79.2764 36.9104C79.0422 36.7738 78.8031 36.5786 78.5592 36.3249C78.3152 36.0711 78.0908 35.7394 77.8858 35.3295C77.6223 35.5442 77.2613 35.7735 76.8026 36.0175C76.344 36.2614 75.8512 36.4859 75.3242 36.6908C74.807 36.8958 74.2898 37.0665 73.7726 37.2031C73.2554 37.3398 72.8114 37.4081 72.4405 37.4081C72.2356 37.4081 72.0258 37.3886 71.8111 37.3495C71.6062 37.3105 71.4159 37.2422 71.2402 37.1446C71.0646 37.0372 70.9182 36.8909 70.8011 36.7055C70.6937 36.52 70.6401 36.281 70.6401 35.9882C70.6401 35.6467 70.806 35.2807 71.1378 34.8904C71.4696 34.4903 71.8892 34.1243 72.3966 33.7925C72.9041 33.451 73.4554 33.1728 74.0507 32.9582C74.646 32.7337 75.2071 32.6215 75.7341 32.6215C75.8999 32.6215 76.0463 32.6264 76.1732 32.6361C76.3098 32.6361 76.4318 32.6556 76.5391 32.6947C76.7246 32.8118 76.8417 32.9484 76.8904 33.1045C76.9392 33.2509 76.9441 33.4022 76.9051 33.5583C76.8661 33.7047 76.788 33.8462 76.6709 33.9828C76.5635 34.1097 76.4367 34.2121 76.2903 34.2902H76.1146C76.0658 34.2902 76.0024 34.2902 75.9243 34.2902C75.856 34.2804 75.778 34.2756 75.6901 34.2756C75.3876 34.2756 75.0753 34.3244 74.7533 34.422C74.4313 34.5195 74.1239 34.6464 73.8311 34.8025C73.5384 34.9489 73.27 35.1099 73.026 35.2856C72.7821 35.4612 72.5869 35.6271 72.4405 35.7833C72.8406 35.7833 73.231 35.7345 73.6116 35.6369C74.0019 35.5393 74.3776 35.4173 74.7387 35.2709C75.0997 35.1246 75.4413 34.9636 75.7633 34.7879C76.0951 34.6122 76.3976 34.4512 76.6709 34.3048C76.9539 34.1585 77.2076 34.0365 77.4321 33.9389C77.6663 33.8413 77.8614 33.7925 78.0176 33.7925C78.2615 33.7925 78.4469 33.8657 78.5738 34.0121C78.7104 34.1585 78.8275 34.3488 78.9251 34.583C79.0227 34.8074 79.1252 35.0611 79.2325 35.3441C79.3399 35.6174 79.496 35.8857 79.7009 36.1492Z" fill="url(#paint19_linear_1129_1571)"/>
<path d="M82.2999 32.8264C82.4463 32.7581 82.5976 32.7191 82.7537 32.7093C82.9099 32.6996 83.0562 32.7288 83.1929 32.7971C83.3295 32.8557 83.4466 32.9484 83.5442 33.0753C83.6515 33.2021 83.7198 33.3583 83.7491 33.5437C83.671 33.6608 83.5978 33.7925 83.5295 33.9389C83.4612 34.0658 83.3929 34.2219 83.3246 34.4073C83.2563 34.583 83.188 34.783 83.1197 35.0075C83.3148 34.8318 83.5686 34.6074 83.8808 34.3341C84.2029 34.0511 84.5493 33.7828 84.9201 33.529C85.3007 33.2656 85.691 33.0411 86.0911 32.8557C86.4912 32.6605 86.8718 32.5629 87.2329 32.5629C87.594 32.5629 87.9209 32.6166 88.2136 32.724C88.5162 32.8215 88.7748 32.9826 88.9894 33.207C89.2041 33.4217 89.37 33.7047 89.4871 34.056C89.6042 34.3976 89.6628 34.8172 89.6628 35.3149C89.6628 35.754 89.6238 36.1297 89.5457 36.442C89.4676 36.7543 89.3798 37.0129 89.2822 37.2178C89.1944 37.413 89.1066 37.5593 89.0187 37.6569C88.9407 37.7545 88.9016 37.8033 88.9016 37.8033C88.8333 37.8033 88.7601 37.6472 88.6821 37.3349C88.604 37.0324 88.565 36.6176 88.565 36.0907C88.565 35.7882 88.5162 35.5149 88.4186 35.2709C88.3307 35.027 88.2185 34.822 88.0819 34.6562C87.9453 34.4805 87.8038 34.3488 87.6574 34.2609C87.511 34.1633 87.3842 34.1146 87.2768 34.1146C87.0816 34.1146 86.8474 34.1926 86.5742 34.3488C86.3107 34.5049 86.0277 34.7049 85.7252 34.9489C85.4227 35.1831 85.1104 35.4368 84.7884 35.7101C84.4761 35.9833 84.1687 36.2419 83.8662 36.4859C83.5734 36.7201 83.3002 36.9153 83.0465 37.0714C82.7927 37.2275 82.5829 37.3056 82.417 37.3056C82.2511 37.3056 82.1048 37.2666 81.9779 37.1885C81.851 37.1104 81.7388 37.0129 81.6412 36.8957C81.5436 36.7786 81.4705 36.6469 81.4217 36.5005C81.3729 36.3541 81.3485 36.2127 81.3485 36.076C81.3485 35.7735 81.3973 35.4222 81.4949 35.0221C81.6022 34.6122 81.7193 34.2365 81.8462 33.895C81.973 33.5534 82.0804 33.2753 82.1682 33.0606C82.2658 32.8459 82.3097 32.7679 82.2999 32.8264Z" fill="url(#paint20_linear_1129_1571)"/>
<path d="M100.443 36.1492C100.589 36.3346 100.721 36.481 100.838 36.5884C100.965 36.6957 101.072 36.7786 101.16 36.8372C101.248 36.8957 101.316 36.9445 101.365 36.9836C101.423 37.0129 101.453 37.047 101.453 37.086C101.453 37.1348 101.423 37.1787 101.365 37.2178C101.306 37.2471 101.233 37.2617 101.145 37.2617C101.038 37.2617 100.882 37.2373 100.677 37.1885C100.482 37.1397 100.262 37.047 100.018 36.9104C99.784 36.7738 99.5449 36.5786 99.3009 36.3249C99.057 36.0711 98.8325 35.7394 98.6276 35.3295C98.3641 35.5442 98.003 35.7735 97.5444 36.0175C97.0857 36.2614 96.5929 36.4859 96.0659 36.6908C95.5487 36.8958 95.0315 37.0665 94.5143 37.2031C93.9971 37.3398 93.5531 37.4081 93.1823 37.4081C92.9774 37.4081 92.7675 37.3886 92.5529 37.3495C92.3479 37.3105 92.1576 37.2422 91.982 37.1446C91.8063 37.0372 91.66 36.8909 91.5428 36.7055C91.4355 36.52 91.3818 36.281 91.3818 35.9882C91.3818 35.6467 91.5477 35.2807 91.8795 34.8904C92.2113 34.4903 92.6309 34.1243 93.1384 33.7925C93.6458 33.451 94.1972 33.1728 94.7924 32.9582C95.3877 32.7337 95.9488 32.6215 96.4758 32.6215C96.6417 32.6215 96.7881 32.6264 96.9149 32.6361C97.0516 32.6361 97.1735 32.6556 97.2809 32.6947C97.4663 32.8118 97.5834 32.9484 97.6322 33.1045C97.681 33.2509 97.6859 33.4022 97.6468 33.5583C97.6078 33.7047 97.5297 33.8462 97.4126 33.9828C97.3053 34.1097 97.1784 34.2121 97.0321 34.2902H96.8564C96.8076 34.2902 96.7442 34.2902 96.6661 34.2902C96.5978 34.2804 96.5197 34.2756 96.4319 34.2756C96.1294 34.2756 95.8171 34.3244 95.4951 34.422C95.173 34.5195 94.8656 34.6464 94.5729 34.8025C94.2801 34.9489 94.0118 35.1099 93.7678 35.2856C93.5238 35.4612 93.3287 35.6271 93.1823 35.7833C93.5824 35.7833 93.9727 35.7345 94.3533 35.6369C94.7437 35.5393 95.1194 35.4173 95.4804 35.2709C95.8415 35.1246 96.1831 34.9636 96.5051 34.7879C96.8369 34.6122 97.1394 34.4512 97.4126 34.3048C97.6956 34.1585 97.9494 34.0365 98.1738 33.9389C98.408 33.8413 98.6032 33.7925 98.7593 33.7925C99.0033 33.7925 99.1887 33.8657 99.3156 34.0121C99.4522 34.1585 99.5693 34.3488 99.6669 34.583C99.7645 34.8074 99.8669 35.0611 99.9743 35.3441C100.082 35.6174 100.238 35.8857 100.443 36.1492Z" fill="url(#paint21_linear_1129_1571)"/>
<path d="M115.714 36.1492C116.368 36.2078 116.812 36.2761 117.046 36.3541C117.28 36.4322 117.363 36.5152 117.295 36.603C117.227 36.6811 117.041 36.7591 116.739 36.8372C116.446 36.9153 116.104 36.9885 115.714 37.0568C115.412 37.1056 115.007 37.169 114.499 37.2471C113.992 37.3154 113.465 37.3837 112.918 37.452C112.372 37.5203 111.84 37.5788 111.323 37.6276C110.815 37.6764 110.401 37.7008 110.079 37.7008C109.991 37.7008 109.893 37.6716 109.786 37.613C109.678 37.5642 109.581 37.4959 109.493 37.4081C109.405 37.3202 109.327 37.2227 109.259 37.1153C109.2 37.008 109.171 36.9006 109.171 36.7933C109.171 36.3444 109.2 35.915 109.259 35.5052C109.327 35.0855 109.42 34.6757 109.537 34.2756C109.654 33.8755 109.791 33.4802 109.947 33.0899C110.103 32.6996 110.269 32.2995 110.444 31.8896C110.806 31.0992 111.201 30.3575 111.63 29.6646C112.069 28.9718 112.479 28.3668 112.86 27.8495C113.24 27.3323 113.562 26.9176 113.826 26.6053C114.089 26.293 114.236 26.1174 114.265 26.0784C114.411 26.0393 114.563 26.0296 114.719 26.0491C114.885 26.0686 115.031 26.1223 115.158 26.2101C115.285 26.2979 115.382 26.415 115.451 26.5614C115.519 26.7078 115.534 26.8883 115.495 27.103C115.055 27.6202 114.616 28.1813 114.177 28.7864C113.806 29.3036 113.406 29.894 112.977 30.5576C112.547 31.2114 112.157 31.8994 111.806 32.6215C111.513 33.2168 111.284 33.7876 111.118 34.3341C110.952 34.8708 110.849 35.4466 110.81 36.0614C111.494 36.0224 112.235 36.0077 113.035 36.0175C113.836 36.0175 114.728 36.0614 115.714 36.1492Z" fill="url(#paint22_linear_1129_1571)"/>
<path d="M118.476 35.4466C118.476 35.2222 118.525 35.0611 118.623 34.9636C118.73 34.866 118.852 34.8123 118.989 34.8025C118.998 34.5586 119.154 34.3048 119.457 34.0414C119.759 33.7681 120.145 33.5242 120.613 33.3095C121.082 33.085 121.594 32.9045 122.15 32.7679C122.716 32.6312 123.263 32.5678 123.79 32.5776C124.043 32.5776 124.336 32.6117 124.668 32.68C125 32.7484 125.312 32.8606 125.605 33.0167C125.898 33.1631 126.146 33.368 126.351 33.6315C126.556 33.895 126.659 34.2219 126.659 34.6122C126.659 35.0807 126.517 35.4905 126.234 35.8418C125.951 36.1834 125.585 36.4664 125.136 36.6908C124.697 36.9153 124.204 37.0812 123.658 37.1885C123.112 37.2958 122.575 37.3495 122.048 37.3495C121.667 37.3495 121.267 37.3202 120.848 37.2617C120.428 37.1934 120.042 37.086 119.691 36.9397C119.34 36.7835 119.047 36.5835 118.813 36.3395C118.588 36.0955 118.476 35.7979 118.476 35.4466ZM120.511 34.4366C120.462 34.4561 120.389 34.4854 120.291 34.5244C120.194 34.5634 120.086 34.6074 119.969 34.6562C119.852 34.7049 119.735 34.7537 119.618 34.8025C119.501 34.8513 119.398 34.8904 119.311 34.9196C119.359 34.9392 119.408 34.9684 119.457 35.0075C119.506 35.0367 119.555 35.0709 119.603 35.1099C119.701 35.2953 119.945 35.4564 120.335 35.593C120.735 35.7198 121.233 35.7833 121.828 35.7833C122.141 35.7833 122.487 35.7491 122.868 35.6808C123.248 35.6125 123.604 35.5295 123.936 35.432C124.268 35.3246 124.546 35.2075 124.77 35.0807C124.995 34.944 125.107 34.8172 125.107 34.7001C125.107 34.583 125.049 34.4903 124.931 34.422C124.814 34.3439 124.663 34.2853 124.478 34.2463C124.302 34.1975 124.102 34.1682 123.878 34.1585C123.663 34.139 123.453 34.1292 123.248 34.1292C122.809 34.1292 122.35 34.1536 121.872 34.2024C121.404 34.2414 120.95 34.3195 120.511 34.4366Z" fill="url(#paint23_linear_1129_1571)"/>
<path d="M135.1 36.3102C135.656 36.4664 136.036 36.6323 136.241 36.8079C136.456 36.9738 136.563 37.0958 136.563 37.1739C136.563 37.2715 136.505 37.2959 136.388 37.2471C136.134 37.1397 135.802 37.0714 135.392 37.0421C134.983 37.0129 134.534 37.0031 134.046 37.0129C133.568 37.0226 133.065 37.0519 132.538 37.1007C132.011 37.1397 131.504 37.1836 131.016 37.2324C130.528 37.2715 130.079 37.3105 129.669 37.3495C129.259 37.3886 128.922 37.4081 128.659 37.4081C128.435 37.4081 128.239 37.3251 128.073 37.1592C127.917 36.9836 127.839 36.7689 127.839 36.5152C127.839 36.0468 128.23 35.6076 129.01 35.1978C129.791 34.7781 130.972 34.4024 132.553 34.0706C132.494 34.0511 132.377 34.0365 132.201 34.0267C132.026 34.0072 131.826 33.9975 131.601 33.9975C131.387 33.9877 131.162 33.9877 130.928 33.9975C130.703 34.0072 130.518 34.0219 130.372 34.0414C130.215 33.9731 130.094 33.8852 130.006 33.7779C129.918 33.6608 129.869 33.5388 129.859 33.4119C129.85 33.2851 129.879 33.1582 129.947 33.0314C130.025 32.9045 130.142 32.7923 130.298 32.6947C130.66 32.6361 131.079 32.6068 131.557 32.6068C132.016 32.6068 132.484 32.6459 132.963 32.724C133.441 32.802 133.87 32.9142 134.251 33.0606C134.641 33.1972 134.958 33.368 135.202 33.573C135.456 33.7681 135.583 33.9926 135.583 34.2463C135.583 34.3634 135.505 34.4756 135.349 34.583C135.202 34.6903 135.007 34.7928 134.763 34.8904C134.519 34.9782 134.236 35.066 133.914 35.1538C133.602 35.2319 133.28 35.3149 132.948 35.4027C132.616 35.4808 132.289 35.5588 131.967 35.6369C131.645 35.7052 131.357 35.7784 131.104 35.8565C131.396 35.8565 131.709 35.8662 132.04 35.8857C132.382 35.8955 132.723 35.9199 133.065 35.9589C133.416 35.9882 133.763 36.0321 134.104 36.0907C134.456 36.1492 134.787 36.2224 135.1 36.3102Z" fill="url(#paint24_linear_1129_1571)"/>
<path d="M139.444 36.3102C139.248 36.564 139.068 36.7933 138.902 36.9982C138.746 37.2031 138.599 37.3056 138.463 37.3056C138.365 37.3056 138.277 37.2617 138.199 37.1739C138.131 37.0763 138.072 36.9641 138.024 36.8372C137.985 36.7006 137.951 36.5542 137.921 36.3981C137.902 36.2419 137.892 36.0955 137.892 35.9589C137.921 35.793 137.98 35.5637 138.068 35.2709C138.155 34.9684 138.258 34.6562 138.375 34.3341C138.492 34.0121 138.614 33.7096 138.741 33.4266C138.868 33.1338 138.985 32.9142 139.092 32.7679C139.346 32.7971 139.585 32.8899 139.81 33.046C140.044 33.1924 140.229 33.3729 140.366 33.5876C140.161 34.0462 139.985 34.4854 139.839 34.905C139.692 35.3149 139.561 35.7833 139.444 36.3102ZM140.732 30.338C140.79 30.338 140.863 30.3429 140.951 30.3526C141.039 30.3624 141.122 30.3917 141.2 30.4404C141.288 30.4892 141.361 30.5722 141.42 30.6893C141.478 30.8064 141.508 30.9674 141.508 31.1723C141.508 31.3382 141.459 31.4846 141.361 31.6115C141.264 31.7286 141.146 31.8262 141.01 31.9042C140.883 31.9823 140.746 32.0457 140.6 32.0945C140.463 32.1336 140.351 32.1531 140.263 32.1531C140.088 32.1531 139.951 32.1238 139.853 32.0653C139.766 31.9969 139.697 31.9238 139.648 31.8457C139.609 31.7579 139.585 31.6749 139.575 31.5968C139.575 31.509 139.575 31.4407 139.575 31.3919C139.575 31.265 139.609 31.1382 139.678 31.0113C139.756 30.8845 139.849 30.7722 139.956 30.6747C140.063 30.5673 140.185 30.4844 140.322 30.4258C140.458 30.3673 140.595 30.338 140.732 30.338Z" fill="url(#paint25_linear_1129_1571)"/>
<path d="M142.452 32.8264C142.599 32.7581 142.75 32.7191 142.906 32.7093C143.062 32.6996 143.209 32.7288 143.345 32.7971C143.482 32.8557 143.599 32.9484 143.697 33.0753C143.804 33.2021 143.872 33.3583 143.902 33.5437C143.824 33.6608 143.75 33.7925 143.682 33.9389C143.614 34.0658 143.545 34.2219 143.477 34.4073C143.409 34.583 143.34 34.783 143.272 35.0075C143.467 34.8318 143.721 34.6074 144.033 34.3341C144.355 34.0511 144.702 33.7828 145.073 33.529C145.453 33.2656 145.844 33.0411 146.244 32.8557C146.644 32.6605 147.024 32.5629 147.385 32.5629C147.746 32.5629 148.073 32.6166 148.366 32.724C148.669 32.8215 148.927 32.9826 149.142 33.207C149.357 33.4217 149.523 33.7047 149.64 34.056C149.757 34.3976 149.815 34.8172 149.815 35.3149C149.815 35.754 149.776 36.1297 149.698 36.442C149.62 36.7543 149.532 37.0129 149.435 37.2178C149.347 37.413 149.259 37.5593 149.171 37.6569C149.093 37.7545 149.054 37.8033 149.054 37.8033C148.986 37.8033 148.913 37.6472 148.835 37.3349C148.757 37.0324 148.717 36.6176 148.717 36.0907C148.717 35.7882 148.669 35.5149 148.571 35.2709C148.483 35.027 148.371 34.822 148.234 34.6562C148.098 34.4805 147.956 34.3488 147.81 34.2609C147.664 34.1633 147.537 34.1146 147.429 34.1146C147.234 34.1146 147 34.1926 146.727 34.3488C146.463 34.5049 146.18 34.7049 145.878 34.9489C145.575 35.1831 145.263 35.4368 144.941 35.7101C144.629 35.9833 144.321 36.2419 144.019 36.4859C143.726 36.7201 143.453 36.9153 143.199 37.0714C142.945 37.2275 142.735 37.3056 142.57 37.3056C142.404 37.3056 142.257 37.2666 142.13 37.1885C142.004 37.1104 141.891 37.0129 141.794 36.8957C141.696 36.7786 141.623 36.6469 141.574 36.5005C141.525 36.3541 141.501 36.2127 141.501 36.076C141.501 35.7735 141.55 35.4222 141.647 35.0221C141.755 34.6122 141.872 34.2365 141.999 33.895C142.126 33.5534 142.233 33.2753 142.321 33.0606C142.418 32.8459 142.462 32.7679 142.452 32.8264Z" fill="url(#paint26_linear_1129_1571)"/>
<path d="M152.105 33.3827C152.105 33.0216 152.222 32.7337 152.457 32.519C152.691 32.2946 152.969 32.1287 153.291 32.0213C153.623 31.914 153.959 31.8457 154.301 31.8164C154.642 31.7774 154.921 31.7579 155.135 31.7579C155.574 31.7579 155.95 31.7969 156.262 31.875C156.575 31.9433 156.814 31.9969 156.98 32.036C157.048 32.1628 157.097 32.2946 157.126 32.4312C157.155 32.5678 157.155 32.7044 157.126 32.8411C157.097 32.9777 157.033 33.1094 156.936 33.2363C156.848 33.3631 156.711 33.4754 156.526 33.573C156.321 33.5046 156.077 33.451 155.794 33.4119C155.521 33.3729 155.257 33.3534 155.004 33.3534C154.711 33.3534 154.457 33.368 154.242 33.3973C154.037 33.4266 153.935 33.4802 153.935 33.5583C153.935 33.6266 154.042 33.7242 154.257 33.8511C154.472 33.9779 154.711 34.1341 154.974 34.3195C155.238 34.5049 155.477 34.7245 155.691 34.9782C155.906 35.2222 156.014 35.5003 156.014 35.8125C156.014 36.281 155.813 36.6615 155.413 36.9543C155.023 37.2373 154.511 37.3788 153.876 37.3788C153.623 37.3788 153.34 37.3593 153.027 37.3202C152.715 37.2812 152.422 37.2227 152.149 37.1446C151.876 37.0568 151.647 36.9592 151.461 36.8518C151.276 36.7347 151.183 36.603 151.183 36.4566C151.183 36.3883 151.256 36.3395 151.403 36.3102C151.559 36.2712 151.749 36.2419 151.973 36.2224C152.198 36.2029 152.437 36.1883 152.691 36.1785C152.954 36.1687 153.198 36.1492 153.423 36.1199C153.647 36.0907 153.832 36.0468 153.979 35.9882C154.135 35.9296 154.213 35.8467 154.213 35.7394C154.213 35.6515 154.101 35.5491 153.876 35.432C153.662 35.3051 153.423 35.1538 153.159 34.9782C152.896 34.7928 152.652 34.5732 152.427 34.3195C152.213 34.056 152.105 33.7437 152.105 33.3827Z" fill="url(#paint27_linear_1129_1571)"/>
<path d="M166.294 37.3788C166.245 37.3593 166.123 37.3202 165.928 37.2617C165.742 37.1934 165.44 37.1251 165.02 37.0568C164.61 36.9885 164.069 36.9299 163.395 36.8811C162.732 36.8226 161.902 36.7933 160.907 36.7933C160.712 36.7933 160.536 36.8079 160.38 36.8372C160.322 36.9836 160.248 37.2275 160.161 37.5691C160.082 37.9204 159.995 38.3107 159.897 38.7401C159.799 39.1793 159.702 39.633 159.604 40.1014C159.507 40.5796 159.414 41.0236 159.326 41.4335C159.219 41.8726 159.121 42.2386 159.033 42.5313C158.955 42.8241 158.877 42.9705 158.799 42.9705C158.682 42.9705 158.594 42.7851 158.536 42.4142C158.487 42.0532 158.463 41.5945 158.463 41.0383C158.463 40.6772 158.472 40.2917 158.492 39.8819C158.511 39.4818 158.541 39.0719 158.58 38.6523C158.619 38.2327 158.667 37.8228 158.726 37.4227C158.785 37.0226 158.848 36.6469 158.916 36.2956C159.014 35.8369 159.146 35.3197 159.312 34.744C159.487 34.1585 159.736 33.4754 160.058 32.6947C160.38 31.9042 160.795 30.9967 161.302 29.972C161.81 28.9376 162.444 27.7471 163.205 26.4004C163.283 26.3614 163.361 26.337 163.439 26.3272C163.527 26.3077 163.61 26.2979 163.688 26.2979C163.903 26.2979 164.088 26.3662 164.244 26.5029C164.401 26.6395 164.513 26.8639 164.581 27.1762C164.083 28.0837 163.615 28.962 163.176 29.811C162.99 30.1721 162.8 30.5478 162.605 30.9381C162.42 31.3187 162.239 31.6944 162.063 32.0653C161.898 32.4361 161.746 32.7874 161.61 33.1192C161.483 33.451 161.38 33.7486 161.302 34.0121C161.527 33.9047 161.771 33.8023 162.034 33.7047C162.298 33.6071 162.556 33.5193 162.81 33.4412C163.073 33.3534 163.313 33.2802 163.527 33.2216C163.752 33.1533 163.927 33.1045 164.054 33.0753C164.22 33.1533 164.347 33.2802 164.435 33.4558C164.532 33.6217 164.581 33.8072 164.581 34.0121C164.581 34.2073 164.532 34.3976 164.435 34.583C164.288 34.622 164.122 34.6708 163.937 34.7293C163.761 34.7781 163.576 34.8318 163.381 34.8904C163.195 34.9489 163.015 35.0123 162.839 35.0807C162.664 35.149 162.512 35.2173 162.385 35.2856C162.512 35.2856 162.654 35.2905 162.81 35.3002C162.966 35.31 163.142 35.3246 163.337 35.3441C163.678 35.3929 164.044 35.4612 164.435 35.5491C164.835 35.6271 165.22 35.7345 165.591 35.8711C165.874 35.9784 166.128 36.1004 166.352 36.237C166.587 36.3737 166.782 36.5298 166.938 36.7055C167.172 36.9689 167.289 37.2617 167.289 37.5837C167.289 37.7594 167.24 37.8472 167.143 37.8472C167.113 37.8472 167.065 37.8277 166.996 37.7887C166.938 37.7594 166.87 37.7203 166.791 37.6716C166.713 37.6228 166.63 37.5691 166.543 37.5105C166.465 37.4617 166.382 37.4178 166.294 37.3788Z" fill="url(#paint28_linear_1129_1571)"/>
<path d="M177.892 36.1492C178.038 36.3346 178.17 36.481 178.287 36.5884C178.414 36.6957 178.521 36.7786 178.609 36.8372C178.697 36.8957 178.765 36.9445 178.814 36.9836C178.873 37.0129 178.902 37.047 178.902 37.086C178.902 37.1348 178.873 37.1787 178.814 37.2178C178.756 37.2471 178.682 37.2617 178.594 37.2617C178.487 37.2617 178.331 37.2373 178.126 37.1885C177.931 37.1397 177.711 37.047 177.467 36.9104C177.233 36.7738 176.994 36.5786 176.75 36.3249C176.506 36.0711 176.282 35.7394 176.077 35.3295C175.813 35.5442 175.452 35.7735 174.994 36.0175C174.535 36.2614 174.042 36.4859 173.515 36.6908C172.998 36.8958 172.481 37.0665 171.964 37.2031C171.446 37.3398 171.002 37.4081 170.632 37.4081C170.427 37.4081 170.217 37.3886 170.002 37.3495C169.797 37.3105 169.607 37.2422 169.431 37.1446C169.256 37.0372 169.109 36.8909 168.992 36.7055C168.885 36.52 168.831 36.281 168.831 35.9882C168.831 35.6467 168.997 35.2807 169.329 34.8904C169.661 34.4903 170.08 34.1243 170.588 33.7925C171.095 33.451 171.646 33.1728 172.242 32.9582C172.837 32.7337 173.398 32.6215 173.925 32.6215C174.091 32.6215 174.237 32.6264 174.364 32.6361C174.501 32.6361 174.623 32.6556 174.73 32.6947C174.916 32.8118 175.033 32.9484 175.081 33.1045C175.13 33.2509 175.135 33.4022 175.096 33.5583C175.057 33.7047 174.979 33.8462 174.862 33.9828C174.755 34.1097 174.628 34.2121 174.481 34.2902H174.306C174.257 34.2902 174.193 34.2902 174.115 34.2902C174.047 34.2804 173.969 34.2756 173.881 34.2756C173.579 34.2756 173.266 34.3244 172.944 34.422C172.622 34.5195 172.315 34.6464 172.022 34.8025C171.729 34.9489 171.461 35.1099 171.217 35.2856C170.973 35.4612 170.778 35.6271 170.632 35.7833C171.032 35.7833 171.422 35.7345 171.803 35.6369C172.193 35.5393 172.569 35.4173 172.93 35.2709C173.291 35.1246 173.632 34.9636 173.954 34.7879C174.286 34.6122 174.589 34.4512 174.862 34.3048C175.145 34.1585 175.399 34.0365 175.623 33.9389C175.857 33.8413 176.052 33.7925 176.209 33.7925C176.452 33.7925 176.638 33.8657 176.765 34.0121C176.901 34.1585 177.018 34.3488 177.116 34.583C177.214 34.8074 177.316 35.0611 177.423 35.3441C177.531 35.6174 177.687 35.8857 177.892 36.1492Z" fill="url(#paint29_linear_1129_1571)"/>
<defs>
<linearGradient id="paint0_linear_1129_1571" x1="109.989" y1="28.8364" x2="113.353" y2="44.42" gradientUnits="userSpaceOnUse">
<stop stop-color="#E1E1E9"/>
<stop offset="1" stop-color="white" stop-opacity="0.44"/>
</linearGradient>
<linearGradient id="paint1_linear_1129_1571" x1="109.989" y1="28.8364" x2="113.353" y2="44.42" gradientUnits="userSpaceOnUse">
<stop stop-color="#E1E1E9"/>
<stop offset="1" stop-color="white" stop-opacity="0.44"/>
</linearGradient>
<linearGradient id="paint2_linear_1129_1571" x1="109.989" y1="28.8364" x2="113.353" y2="44.42" gradientUnits="userSpaceOnUse">
<stop stop-color="#E1E1E9"/>
<stop offset="1" stop-color="white" stop-opacity="0.44"/>
</linearGradient>
<linearGradient id="paint3_linear_1129_1571" x1="109.989" y1="28.8364" x2="113.353" y2="44.42" gradientUnits="userSpaceOnUse">
<stop stop-color="#E1E1E9"/>
<stop offset="1" stop-color="white" stop-opacity="0.44"/>
</linearGradient>
<linearGradient id="paint4_linear_1129_1571" x1="109.989" y1="28.8364" x2="113.353" y2="44.42" gradientUnits="userSpaceOnUse">
<stop stop-color="#E1E1E9"/>
<stop offset="1" stop-color="white" stop-opacity="0.44"/>
</linearGradient>
<linearGradient id="paint5_linear_1129_1571" x1="109.989" y1="28.8364" x2="113.353" y2="44.42" gradientUnits="userSpaceOnUse">
<stop stop-color="#E1E1E9"/>
<stop offset="1" stop-color="white" stop-opacity="0.44"/>
</linearGradient>
<linearGradient id="paint6_linear_1129_1571" x1="109.989" y1="28.8364" x2="113.353" y2="44.42" gradientUnits="userSpaceOnUse">
<stop stop-color="#E1E1E9"/>
<stop offset="1" stop-color="white" stop-opacity="0.44"/>
</linearGradient>
<linearGradient id="paint7_linear_1129_1571" x1="109.989" y1="28.8364" x2="113.353" y2="44.42" gradientUnits="userSpaceOnUse">
<stop stop-color="#E1E1E9"/>
<stop offset="1" stop-color="white" stop-opacity="0.44"/>
</linearGradient>
<linearGradient id="paint8_linear_1129_1571" x1="109.989" y1="28.8364" x2="113.353" y2="44.42" gradientUnits="userSpaceOnUse">
<stop stop-color="#E1E1E9"/>
<stop offset="1" stop-color="white" stop-opacity="0.44"/>
</linearGradient>
<linearGradient id="paint9_linear_1129_1571" x1="109.989" y1="28.8364" x2="113.353" y2="44.42" gradientUnits="userSpaceOnUse">
<stop stop-color="#E1E1E9"/>
<stop offset="1" stop-color="white" stop-opacity="0.44"/>
</linearGradient>
<linearGradient id="paint10_linear_1129_1571" x1="109.989" y1="28.8364" x2="113.353" y2="44.42" gradientUnits="userSpaceOnUse">
<stop stop-color="#E1E1E9"/>
<stop offset="1" stop-color="white" stop-opacity="0.44"/>
</linearGradient>
<linearGradient id="paint11_linear_1129_1571" x1="109.989" y1="28.8364" x2="113.353" y2="44.42" gradientUnits="userSpaceOnUse">
<stop stop-color="#E1E1E9"/>
<stop offset="1" stop-color="white" stop-opacity="0.44"/>
</linearGradient>
<linearGradient id="paint12_linear_1129_1571" x1="109.989" y1="28.8364" x2="113.353" y2="44.42" gradientUnits="userSpaceOnUse">
<stop stop-color="#E1E1E9"/>
<stop offset="1" stop-color="white" stop-opacity="0.44"/>
</linearGradient>
<linearGradient id="paint13_linear_1129_1571" x1="109.989" y1="28.8364" x2="113.353" y2="44.42" gradientUnits="userSpaceOnUse">
<stop stop-color="#E1E1E9"/>
<stop offset="1" stop-color="white" stop-opacity="0.44"/>
</linearGradient>
<linearGradient id="paint14_linear_1129_1571" x1="109.989" y1="28.8364" x2="113.353" y2="44.42" gradientUnits="userSpaceOnUse">
<stop stop-color="#E1E1E9"/>
<stop offset="1" stop-color="white" stop-opacity="0.44"/>
</linearGradient>
<linearGradient id="paint15_linear_1129_1571" x1="109.989" y1="28.8364" x2="113.353" y2="44.42" gradientUnits="userSpaceOnUse">
<stop stop-color="#E1E1E9"/>
<stop offset="1" stop-color="white" stop-opacity="0.44"/>
</linearGradient>
<linearGradient id="paint16_linear_1129_1571" x1="109.989" y1="28.8364" x2="113.353" y2="44.42" gradientUnits="userSpaceOnUse">
<stop stop-color="#E1E1E9"/>
<stop offset="1" stop-color="white" stop-opacity="0.44"/>
</linearGradient>
<linearGradient id="paint17_linear_1129_1571" x1="109.989" y1="28.8364" x2="113.353" y2="44.42" gradientUnits="userSpaceOnUse">
<stop stop-color="#E1E1E9"/>
<stop offset="1" stop-color="white" stop-opacity="0.44"/>
</linearGradient>
<linearGradient id="paint18_linear_1129_1571" x1="109.989" y1="28.8364" x2="113.353" y2="44.42" gradientUnits="userSpaceOnUse">
<stop stop-color="#E1E1E9"/>
<stop offset="1" stop-color="white" stop-opacity="0.44"/>
</linearGradient>
<linearGradient id="paint19_linear_1129_1571" x1="109.989" y1="28.8364" x2="113.353" y2="44.42" gradientUnits="userSpaceOnUse">
<stop stop-color="#E1E1E9"/>
<stop offset="1" stop-color="white" stop-opacity="0.44"/>
</linearGradient>
<linearGradient id="paint20_linear_1129_1571" x1="109.989" y1="28.8364" x2="113.353" y2="44.42" gradientUnits="userSpaceOnUse">
<stop stop-color="#E1E1E9"/>
<stop offset="1" stop-color="white" stop-opacity="0.44"/>
</linearGradient>
<linearGradient id="paint21_linear_1129_1571" x1="109.989" y1="28.8364" x2="113.353" y2="44.42" gradientUnits="userSpaceOnUse">
<stop stop-color="#E1E1E9"/>
<stop offset="1" stop-color="white" stop-opacity="0.44"/>
</linearGradient>
<linearGradient id="paint22_linear_1129_1571" x1="109.989" y1="28.8364" x2="113.353" y2="44.42" gradientUnits="userSpaceOnUse">
<stop stop-color="#E1E1E9"/>
<stop offset="1" stop-color="white" stop-opacity="0.44"/>
</linearGradient>
<linearGradient id="paint23_linear_1129_1571" x1="109.989" y1="28.8364" x2="113.353" y2="44.42" gradientUnits="userSpaceOnUse">
<stop stop-color="#E1E1E9"/>
<stop offset="1" stop-color="white" stop-opacity="0.44"/>
</linearGradient>
<linearGradient id="paint24_linear_1129_1571" x1="109.989" y1="28.8364" x2="113.353" y2="44.42" gradientUnits="userSpaceOnUse">
<stop stop-color="#E1E1E9"/>
<stop offset="1" stop-color="white" stop-opacity="0.44"/>
</linearGradient>
<linearGradient id="paint25_linear_1129_1571" x1="109.989" y1="28.8364" x2="113.353" y2="44.42" gradientUnits="userSpaceOnUse">
<stop stop-color="#E1E1E9"/>
<stop offset="1" stop-color="white" stop-opacity="0.44"/>
</linearGradient>
<linearGradient id="paint26_linear_1129_1571" x1="109.989" y1="28.8364" x2="113.353" y2="44.42" gradientUnits="userSpaceOnUse">
<stop stop-color="#E1E1E9"/>
<stop offset="1" stop-color="white" stop-opacity="0.44"/>
</linearGradient>
<linearGradient id="paint27_linear_1129_1571" x1="109.989" y1="28.8364" x2="113.353" y2="44.42" gradientUnits="userSpaceOnUse">
<stop stop-color="#E1E1E9"/>
<stop offset="1" stop-color="white" stop-opacity="0.44"/>
</linearGradient>
<linearGradient id="paint28_linear_1129_1571" x1="109.989" y1="28.8364" x2="113.353" y2="44.42" gradientUnits="userSpaceOnUse">
<stop stop-color="#E1E1E9"/>
<stop offset="1" stop-color="white" stop-opacity="0.44"/>
</linearGradient>
<linearGradient id="paint29_linear_1129_1571" x1="109.989" y1="28.8364" x2="113.353" y2="44.42" gradientUnits="userSpaceOnUse">
<stop stop-color="#E1E1E9"/>
<stop offset="1" stop-color="white" stop-opacity="0.44"/>
</linearGradient>
</defs>
</svg>
