<svg width="42" height="24" viewBox="0 0 42 24" fill="none" xmlns="http://www.w3.org/2000/svg">
<path d="M21.7169 9.56531C21.6915 11.4459 23.4036 12.4953 24.6855 13.1166C26.0097 13.7547 26.4481 14.166 26.4481 14.7369C26.4397 15.61 25.3939 15.9963 24.4156 16.0131C22.7121 16.0383 21.7169 15.5512 20.9325 15.1903L20.3253 18.0531C21.1181 18.4142 22.5771 18.7332 24.1036 18.75C27.6711 18.75 29.9988 16.9953 30.0156 14.2836C30.0326 10.8414 25.2253 10.6483 25.2591 9.10354C25.2675 8.6334 25.7229 8.13806 26.7012 8.01213C27.1903 7.94496 28.5313 7.89459 30.0494 8.59982L30.6482 5.82928C29.6193 5.45149 28.5398 5.25 27.4518 5.25C24.1037 5.25 21.7422 7.02146 21.7169 9.56531ZM36.3663 5.48508C35.7337 5.47668 35.1603 5.85448 34.9156 6.44217L29.83 18.5401H33.3891L34.0975 16.5924H38.4493L38.8626 18.5401H42L39.2591 5.48508H36.3663ZM36.8638 9.01119L37.8927 13.9142H35.0759L36.8638 9.01119ZM17.3988 5.48508L14.5904 18.5485H17.9806L20.7976 5.48508H17.3988ZM12.3807 5.48508L8.84698 14.3759L7.42169 6.81996C7.25301 5.98041 6.59518 5.48508 5.85301 5.48508H0.0843374L0 5.87127C1.18916 6.12314 2.53013 6.54291 3.3482 6.97948C3.84579 7.24813 3.98916 7.48321 4.15784 8.12967L6.86507 18.5485H10.4494L15.9482 5.48508H12.3807Z" fill="url(#paint0_linear_994_4807)"/>
<defs>
<linearGradient id="paint0_linear_994_4807" x1="6.68554" y1="14.1097" x2="24.6806" y2="-2.45166" gradientUnits="userSpaceOnUse">
<stop stop-color="#222357"/>
<stop offset="1" stop-color="#254AA5"/>
</linearGradient>
</defs>
</svg>
